<svg id="grafico" xmlns="http://www.w3.org/2000/svg" xmlns:xlink="http://www.w3.org/1999/xlink" viewBox="0 0 1772.99 1245.66"><defs><style>.cls-1,.cls-10,.cls-11,.cls-12,.cls-13,.cls-14,.cls-16,.cls-18,.cls-19,.cls-20,.cls-21,.cls-22,.cls-4,.cls-6,.cls-8,.cls-9{fill:none;}.cls-2{clip-path:url(#clip-path);}.cls-20,.cls-3{opacity:0.2;}.cls-10,.cls-11,.cls-12,.cls-13,.cls-14,.cls-18,.cls-19,.cls-20,.cls-21,.cls-22,.cls-4,.cls-6,.cls-8,.cls-9{stroke:#fff;}.cls-10,.cls-11,.cls-12,.cls-13,.cls-14,.cls-16,.cls-18,.cls-19,.cls-20,.cls-21,.cls-22,.cls-4,.cls-6,.cls-8,.cls-9{stroke-miterlimit:10;}.cls-4{stroke-width:1.87px;}.cls-22,.cls-5{opacity:0.3;}.cls-6{stroke-width:2.03px;}.cls-13,.cls-7{opacity:0.15;}.cls-10,.cls-11,.cls-12,.cls-13,.cls-18,.cls-19,.cls-8,.cls-9{stroke-linecap:round;}.cls-9{stroke-dasharray:9.25 9.25;}.cls-10{stroke-dasharray:9.25 9.25;}.cls-11{stroke-dasharray:9.25 9.25;}.cls-12{stroke-dasharray:9.25 9.25;}.cls-13{stroke-width:1.5px;}.cls-14,.cls-15,.cls-16,.cls-21{opacity:0.1;}.cls-15,.cls-17{fill:#fff;}.cls-16{stroke:#f2f2f2;stroke-width:3px;}.cls-18,.cls-19{stroke-width:1.12px;}.cls-19{stroke-dasharray:10.34 10.34;}.cls-20{stroke-width:1.5px;}.cls-21{stroke-width:2.57px;}.cls-22{stroke-width:2.03px;}</style><clipPath id="clip-path" transform="translate(133.72 286.49)"><path class="cls-1" d="M1280,0V720H0V0Z"/></clipPath></defs><g id="formas"><g class="cls-2"><g class="cls-3"><line class="cls-4" x1="377.55" y1="1005.73" x2="477" y2="1005.73"/><line class="cls-4" x1="402.41" y1="980.87" x2="501.86" y2="980.87"/><line class="cls-4" x1="427.27" y1="956.01" x2="526.72" y2="956.01"/><line class="cls-4" x1="452.13" y1="931.15" x2="551.58" y2="931.15"/><line class="cls-4" x1="477" y1="906.29" x2="576.44" y2="906.29"/><line class="cls-4" x1="501.86" y1="881.43" x2="601.3" y2="881.43"/><line class="cls-4" x1="526.72" y1="856.57" x2="626.16" y2="856.57"/><line class="cls-4" x1="551.58" y1="831.71" x2="651.02" y2="831.71"/><line class="cls-4" x1="576.44" y1="806.85" x2="675.88" y2="806.85"/><line class="cls-4" x1="601.3" y1="781.99" x2="700.74" y2="781.99"/><line class="cls-4" x1="626.16" y1="757.12" x2="725.61" y2="757.12"/><line class="cls-4" x1="651.02" y1="732.26" x2="750.47" y2="732.26"/><line class="cls-4" x1="675.88" y1="707.4" x2="775.33" y2="707.4"/></g><g class="cls-5"><line class="cls-6" x1="1585.39" y1="96.63" x2="1585.39" y2="204.54"/><line class="cls-6" x1="1558.41" y1="123.61" x2="1558.41" y2="231.53"/><line class="cls-6" x1="1531.43" y1="150.59" x2="1531.43" y2="258.51"/><line class="cls-6" x1="1504.45" y1="177.56" x2="1504.45" y2="285.48"/><line class="cls-6" x1="1477.47" y1="204.54" x2="1477.47" y2="312.46"/><line class="cls-6" x1="1450.49" y1="231.53" x2="1450.49" y2="339.44"/><line class="cls-6" x1="1423.51" y1="258.51" x2="1423.51" y2="366.42"/><line class="cls-6" x1="1396.53" y1="285.49" x2="1396.53" y2="393.4"/><line class="cls-6" x1="1369.55" y1="312.46" x2="1369.55" y2="420.38"/><line class="cls-6" x1="1342.57" y1="339.44" x2="1342.57" y2="447.36"/><line class="cls-6" x1="1315.59" y1="366.42" x2="1315.59" y2="474.34"/><line class="cls-6" x1="1288.62" y1="393.4" x2="1288.62" y2="501.32"/><line class="cls-6" x1="1261.63" y1="420.38" x2="1261.63" y2="528.3"/></g><g class="cls-7"><polyline class="cls-8" points="494.29 610.98 497.53 614.23 494.29 617.47"/><line class="cls-9" x1="487.75" y1="624.01" x2="255.64" y2="856.12"/><polyline class="cls-8" points="252.37 859.39 249.12 862.64 245.87 859.39"/><line class="cls-10" x1="239.34" y1="852.85" x2="7.22" y2="620.74"/><polyline class="cls-8" points="3.95 617.47 0.71 614.23 3.95 610.98"/><line class="cls-11" x1="10.49" y1="604.44" x2="242.6" y2="372.33"/><polyline class="cls-8" points="245.87 369.06 249.12 365.81 252.37 369.06"/><line class="cls-12" x1="258.9" y1="375.6" x2="491.02" y2="607.71"/></g><rect class="cls-13" x="837.6" y="-83.48" width="230.91" height="230.91" transform="translate(215.64 706.37) rotate(-25.92)"/><rect class="cls-14" x="43.33" y="249.3" width="47.83" height="47.83" transform="translate(-39.77 414.06) rotate(-45)"/><rect class="cls-15" x="840.1" y="326.09" width="12.84" height="12.84" transform="translate(146.54 982.46) rotate(-45)"/><rect class="cls-15" x="1237.26" y="479.15" width="14.11" height="14.11" transform="translate(154.37 1308.75) rotate(-45)"/><rect class="cls-15" x="37.21" y="602.9" width="19.16" height="19.16" transform="translate(-285.68 498.98) rotate(-45)"/><path class="cls-16" d="M301.66,77.61A20.81,20.81,0,1,1,280.85,56.8,20.81,20.81,0,0,1,301.66,77.61Z" transform="translate(133.72 286.49)"/><g class="cls-5"><path class="cls-17" d="M929.46,302.83a6,6,0,1,0,0-8.53A6,6,0,0,0,929.46,302.83Z" transform="translate(133.72 286.49)"/><path class="cls-17" d="M896.73,335.56a6,6,0,1,0,0-8.53A6,6,0,0,0,896.73,335.56Z" transform="translate(133.72 286.49)"/><path class="cls-17" d="M864,368.29a6,6,0,1,0,0-8.54A6,6,0,0,0,864,368.29Z" transform="translate(133.72 286.49)"/><path class="cls-17" d="M831.28,401a6,6,0,1,0,0-8.54A6,6,0,0,0,831.28,401Z" transform="translate(133.72 286.49)"/><path class="cls-17" d="M798.55,433.75a6,6,0,1,0,0-8.54A6,6,0,0,0,798.55,433.75Z" transform="translate(133.72 286.49)"/><path class="cls-17" d="M765.82,466.48a6,6,0,1,0,0-8.54A6,6,0,0,0,765.82,466.48Z" transform="translate(133.72 286.49)"/><path class="cls-17" d="M733.09,499.2a6,6,0,1,0,0-8.53A6,6,0,0,0,733.09,499.2Z" transform="translate(133.72 286.49)"/><path class="cls-17" d="M700.36,531.94a6,6,0,1,0,0-8.54A6.05,6.05,0,0,0,700.36,531.94Z" transform="translate(133.72 286.49)"/><path class="cls-17" d="M667.63,564.67a6,6,0,1,0,0-8.54A6.05,6.05,0,0,0,667.63,564.67Z" transform="translate(133.72 286.49)"/><path class="cls-17" d="M634.91,597.39a6,6,0,1,0,0-8.54A6,6,0,0,0,634.91,597.39Z" transform="translate(133.72 286.49)"/><path class="cls-17" d="M602.18,630.12a6,6,0,1,0,0-8.54A6,6,0,0,0,602.18,630.12Z" transform="translate(133.72 286.49)"/><path class="cls-17" d="M962.2,335.57a6,6,0,1,0,0-8.54A6,6,0,0,0,962.2,335.57Z" transform="translate(133.72 286.49)"/><path class="cls-17" d="M929.46,368.29a6,6,0,1,0,0-8.54A6,6,0,0,0,929.46,368.29Z" transform="translate(133.72 286.49)"/><path class="cls-17" d="M896.73,401a6,6,0,1,0,0-8.54A6,6,0,0,0,896.73,401Z" transform="translate(133.72 286.49)"/><path class="cls-17" d="M864,433.75a6,6,0,1,0,0-8.54A6,6,0,0,0,864,433.75Z" transform="translate(133.72 286.49)"/><path class="cls-17" d="M831.28,466.48a6,6,0,1,0,0-8.54A6,6,0,0,0,831.28,466.48Z" transform="translate(133.72 286.49)"/><path class="cls-17" d="M798.55,499.21a6,6,0,1,0,0-8.54A6,6,0,0,0,798.55,499.21Z" transform="translate(133.72 286.49)"/><path class="cls-17" d="M765.82,531.94a6,6,0,1,0,0-8.54A6.05,6.05,0,0,0,765.82,531.94Z" transform="translate(133.72 286.49)"/><path class="cls-17" d="M733.09,564.67a6,6,0,1,0,0-8.54A6.07,6.07,0,0,0,733.09,564.67Z" transform="translate(133.72 286.49)"/><path class="cls-17" d="M700.36,597.39a6,6,0,1,0,0-8.53A6,6,0,0,0,700.36,597.39Z" transform="translate(133.72 286.49)"/><path class="cls-17" d="M667.64,630.12a6,6,0,1,0,0-8.54A6,6,0,0,0,667.64,630.12Z" transform="translate(133.72 286.49)"/><path class="cls-17" d="M634.91,662.85a6,6,0,1,0,0-8.54A6,6,0,0,0,634.91,662.85Z" transform="translate(133.72 286.49)"/><path class="cls-17" d="M994.92,368.29a6,6,0,1,0,0-8.54A6,6,0,0,0,994.92,368.29Z" transform="translate(133.72 286.49)"/><path class="cls-17" d="M962.19,401a6,6,0,1,0,0-8.54A6,6,0,0,0,962.19,401Z" transform="translate(133.72 286.49)"/><path class="cls-17" d="M929.46,433.75a6,6,0,1,0,0-8.54A6,6,0,0,0,929.46,433.75Z" transform="translate(133.72 286.49)"/><path class="cls-17" d="M896.73,466.48a6,6,0,1,0,0-8.54A6,6,0,0,0,896.73,466.48Z" transform="translate(133.72 286.49)"/><path class="cls-17" d="M864,499.2a6,6,0,1,0,0-8.54A6,6,0,0,0,864,499.2Z" transform="translate(133.72 286.49)"/><path class="cls-17" d="M831.28,531.94a6,6,0,1,0,0-8.54A6.05,6.05,0,0,0,831.28,531.94Z" transform="translate(133.72 286.49)"/><path class="cls-17" d="M798.55,564.66a6,6,0,1,0,0-8.53A6,6,0,0,0,798.55,564.66Z" transform="translate(133.72 286.49)"/><path class="cls-17" d="M765.82,597.39a6,6,0,1,0,0-8.54A6,6,0,0,0,765.82,597.39Z" transform="translate(133.72 286.49)"/><path class="cls-17" d="M733.09,630.12a6,6,0,1,0,0-8.54A6,6,0,0,0,733.09,630.12Z" transform="translate(133.72 286.49)"/><path class="cls-17" d="M700.36,662.85a6,6,0,1,0,0-8.54A6,6,0,0,0,700.36,662.85Z" transform="translate(133.72 286.49)"/><path class="cls-17" d="M667.63,695.58a6,6,0,1,0,0-8.54A6,6,0,0,0,667.63,695.58Z" transform="translate(133.72 286.49)"/><path class="cls-17" d="M1027.65,401a6,6,0,1,0,0-8.54A6,6,0,0,0,1027.65,401Z" transform="translate(133.72 286.49)"/><path class="cls-17" d="M994.92,433.75a6,6,0,1,0,0-8.54A6,6,0,0,0,994.92,433.75Z" transform="translate(133.72 286.49)"/><path class="cls-17" d="M962.19,466.48a6,6,0,1,0,0-8.54A6,6,0,0,0,962.19,466.48Z" transform="translate(133.72 286.49)"/><path class="cls-17" d="M929.46,499.21a6,6,0,1,0,0-8.54A6,6,0,0,0,929.46,499.21Z" transform="translate(133.72 286.49)"/><path class="cls-17" d="M896.74,531.94a6,6,0,1,0,0-8.54A6.05,6.05,0,0,0,896.74,531.94Z" transform="translate(133.72 286.49)"/><path class="cls-17" d="M864,564.67a6,6,0,1,0,0-8.54A6.05,6.05,0,0,0,864,564.67Z" transform="translate(133.72 286.49)"/><path class="cls-17" d="M831.28,597.39a6,6,0,1,0,0-8.53A6,6,0,0,0,831.28,597.39Z" transform="translate(133.72 286.49)"/><path class="cls-17" d="M798.55,630.12a6,6,0,1,0,0-8.54A6,6,0,0,0,798.55,630.12Z" transform="translate(133.72 286.49)"/><path class="cls-17" d="M765.82,662.85a6,6,0,1,0,0-8.54A6,6,0,0,0,765.82,662.85Z" transform="translate(133.72 286.49)"/><path class="cls-17" d="M733.09,695.58a6,6,0,1,0,0-8.54A6,6,0,0,0,733.09,695.58Z" transform="translate(133.72 286.49)"/><circle class="cls-17" cx="838.35" cy="1010.53" r="6.04"/><path class="cls-17" d="M1060.38,433.75a6,6,0,1,0,0-8.54A6,6,0,0,0,1060.38,433.75Z" transform="translate(133.72 286.49)"/><path class="cls-17" d="M1027.65,466.48a6,6,0,1,0,0-8.54A6,6,0,0,0,1027.65,466.48Z" transform="translate(133.72 286.49)"/><path class="cls-17" d="M994.92,499.21a6,6,0,1,0,0-8.54A6,6,0,0,0,994.92,499.21Z" transform="translate(133.72 286.49)"/><path class="cls-17" d="M962.19,531.94a6,6,0,1,0,0-8.54A6.05,6.05,0,0,0,962.19,531.94Z" transform="translate(133.72 286.49)"/><path class="cls-17" d="M929.46,564.66a6,6,0,1,0,0-8.54A6,6,0,0,0,929.46,564.66Z" transform="translate(133.72 286.49)"/><path class="cls-17" d="M896.73,597.39a6,6,0,1,0,0-8.54A6,6,0,0,0,896.73,597.39Z" transform="translate(133.72 286.49)"/><path class="cls-17" d="M864,630.12a6,6,0,1,0,0-8.54A6,6,0,0,0,864,630.12Z" transform="translate(133.72 286.49)"/><path class="cls-17" d="M831.28,662.85a6,6,0,1,0,0-8.54A6,6,0,0,0,831.28,662.85Z" transform="translate(133.72 286.49)"/><path class="cls-17" d="M798.55,695.58a6,6,0,1,0,0-8.54A6,6,0,0,0,798.55,695.58Z" transform="translate(133.72 286.49)"/><path class="cls-17" d="M765.82,728.31a6,6,0,1,0,0-8.54A6.05,6.05,0,0,0,765.82,728.31Z" transform="translate(133.72 286.49)"/><path class="cls-17" d="M733.09,761a6,6,0,1,0,0-8.54A6.05,6.05,0,0,0,733.09,761Z" transform="translate(133.72 286.49)"/><circle class="cls-17" cx="1231.1" cy="748.7" r="6.04"/><path class="cls-17" d="M1060.38,499.2a6,6,0,1,0,0-8.53A6,6,0,0,0,1060.38,499.2Z" transform="translate(133.72 286.49)"/><path class="cls-17" d="M1027.65,531.94a6,6,0,1,0,0-8.54A6.05,6.05,0,0,0,1027.65,531.94Z" transform="translate(133.72 286.49)"/><path class="cls-17" d="M994.92,564.67a6,6,0,1,0,0-8.54A6.05,6.05,0,0,0,994.92,564.67Z" transform="translate(133.72 286.49)"/><path class="cls-17" d="M962.2,597.39a6,6,0,1,0,0-8.54A6,6,0,0,0,962.2,597.39Z" transform="translate(133.72 286.49)"/><path class="cls-17" d="M929.46,630.12a6,6,0,1,0,0-8.54A6,6,0,0,0,929.46,630.12Z" transform="translate(133.72 286.49)"/><path class="cls-17" d="M896.73,662.85a6,6,0,1,0,0-8.54A6,6,0,0,0,896.73,662.85Z" transform="translate(133.72 286.49)"/><path class="cls-17" d="M864,695.58a6,6,0,1,0,0-8.54A6,6,0,0,0,864,695.58Z" transform="translate(133.72 286.49)"/><path class="cls-17" d="M831.28,728.31a6,6,0,1,0,0-8.54A6,6,0,0,0,831.28,728.31Z" transform="translate(133.72 286.49)"/><path class="cls-17" d="M798.55,761a6,6,0,1,0,0-8.54A6,6,0,0,0,798.55,761Z" transform="translate(133.72 286.49)"/><path class="cls-17" d="M765.82,793.76a6,6,0,1,0,0-8.53A6,6,0,0,0,765.82,793.76Z" transform="translate(133.72 286.49)"/><path class="cls-17" d="M1125.84,499.21a6,6,0,1,0,0-8.54A6,6,0,0,0,1125.84,499.21Z" transform="translate(133.72 286.49)"/><path class="cls-17" d="M1093.11,531.94a6,6,0,1,0,0-8.54A6.05,6.05,0,0,0,1093.11,531.94Z" transform="translate(133.72 286.49)"/><path class="cls-17" d="M1060.38,564.67a6,6,0,1,0,0-8.54A6.05,6.05,0,0,0,1060.38,564.67Z" transform="translate(133.72 286.49)"/><path class="cls-17" d="M1027.65,597.39a6,6,0,1,0,0-8.53A6,6,0,0,0,1027.65,597.39Z" transform="translate(133.72 286.49)"/><path class="cls-17" d="M994.93,630.12a6,6,0,1,0,0-8.54A6,6,0,0,0,994.93,630.12Z" transform="translate(133.72 286.49)"/><path class="cls-17" d="M962.2,662.85a6,6,0,1,0,0-8.54A6,6,0,0,0,962.2,662.85Z" transform="translate(133.72 286.49)"/><path class="cls-17" d="M929.46,695.58a6,6,0,1,0,0-8.54A6,6,0,0,0,929.46,695.58Z" transform="translate(133.72 286.49)"/><path class="cls-17" d="M896.74,728.31a6,6,0,1,0,0-8.54A6.05,6.05,0,0,0,896.74,728.31Z" transform="translate(133.72 286.49)"/><path class="cls-17" d="M864,761a6,6,0,1,0,0-8.54A6.05,6.05,0,0,0,864,761Z" transform="translate(133.72 286.49)"/><path class="cls-17" d="M831.28,793.77a6,6,0,1,0,0-8.54A6,6,0,0,0,831.28,793.77Z" transform="translate(133.72 286.49)"/><path class="cls-17" d="M798.55,826.49a6,6,0,1,0,0-8.53A6,6,0,0,0,798.55,826.49Z" transform="translate(133.72 286.49)"/><path class="cls-17" d="M1158.56,531.94a6,6,0,1,0,0-8.54A6.05,6.05,0,0,0,1158.56,531.94Z" transform="translate(133.72 286.49)"/><path class="cls-17" d="M1125.84,564.67a6,6,0,1,0,0-8.54A6,6,0,0,0,1125.84,564.67Z" transform="translate(133.72 286.49)"/><path class="cls-17" d="M1093.11,597.39a6,6,0,1,0,0-8.54A6,6,0,0,0,1093.11,597.39Z" transform="translate(133.72 286.49)"/><path class="cls-17" d="M1060.38,630.12a6,6,0,1,0,0-8.54A6,6,0,0,0,1060.38,630.12Z" transform="translate(133.72 286.49)"/><path class="cls-17" d="M1027.65,662.85a6,6,0,1,0,0-8.54A6,6,0,0,0,1027.65,662.85Z" transform="translate(133.72 286.49)"/><path class="cls-17" d="M994.92,695.58a6,6,0,1,0,0-8.54A6,6,0,0,0,994.92,695.58Z" transform="translate(133.72 286.49)"/><path class="cls-17" d="M962.2,728.31a6,6,0,1,0,0-8.54A6,6,0,0,0,962.2,728.31Z" transform="translate(133.72 286.49)"/><path class="cls-17" d="M929.46,761a6,6,0,1,0,0-8.54A6,6,0,0,0,929.46,761Z" transform="translate(133.72 286.49)"/><path class="cls-17" d="M896.73,793.77a6,6,0,1,0,0-8.54A6,6,0,0,0,896.73,793.77Z" transform="translate(133.72 286.49)"/><path class="cls-17" d="M864,826.49a6,6,0,1,0,0-8.54A6,6,0,0,0,864,826.49Z" transform="translate(133.72 286.49)"/><path class="cls-17" d="M831.28,859.22a6,6,0,1,0,0-8.53A6,6,0,0,0,831.28,859.22Z" transform="translate(133.72 286.49)"/><path class="cls-17" d="M1191.29,564.67a6,6,0,1,0,0-8.54A6.05,6.05,0,0,0,1191.29,564.67Z" transform="translate(133.72 286.49)"/><path class="cls-17" d="M1158.56,597.39a6,6,0,1,0,0-8.54A6,6,0,0,0,1158.56,597.39Z" transform="translate(133.72 286.49)"/><path class="cls-17" d="M1125.83,630.12a6,6,0,1,0,0-8.54A6,6,0,0,0,1125.83,630.12Z" transform="translate(133.72 286.49)"/><path class="cls-17" d="M1093.11,662.85a6,6,0,1,0,0-8.54A6,6,0,0,0,1093.11,662.85Z" transform="translate(133.72 286.49)"/><path class="cls-17" d="M1060.38,695.58a6,6,0,1,0,0-8.54A6,6,0,0,0,1060.38,695.58Z" transform="translate(133.72 286.49)"/><circle class="cls-17" cx="1165.64" cy="1010.53" r="6.04"/><path class="cls-17" d="M994.92,761a6,6,0,1,0,0-8.54A6.05,6.05,0,0,0,994.92,761Z" transform="translate(133.72 286.49)"/><path class="cls-17" d="M962.2,793.76a6,6,0,1,0,0-8.53A6,6,0,0,0,962.2,793.76Z" transform="translate(133.72 286.49)"/><path class="cls-17" d="M929.46,826.49a6,6,0,1,0,0-8.53A6,6,0,0,0,929.46,826.49Z" transform="translate(133.72 286.49)"/><path class="cls-17" d="M896.73,859.22a6,6,0,1,0,0-8.54A6,6,0,0,0,896.73,859.22Z" transform="translate(133.72 286.49)"/><path class="cls-17" d="M864,892a6,6,0,1,0,0-8.54A6,6,0,0,0,864,892Z" transform="translate(133.72 286.49)"/><path class="cls-17" d="M1224,597.39a6,6,0,1,0,0-8.54A6,6,0,0,0,1224,597.39Z" transform="translate(133.72 286.49)"/><path class="cls-17" d="M1191.29,630.12a6,6,0,1,0,0-8.54A6,6,0,0,0,1191.29,630.12Z" transform="translate(133.72 286.49)"/><path class="cls-17" d="M1158.56,662.85a6,6,0,1,0,0-8.54A6,6,0,0,0,1158.56,662.85Z" transform="translate(133.72 286.49)"/><path class="cls-17" d="M1125.83,695.58a6,6,0,1,0,0-8.54A6,6,0,0,0,1125.83,695.58Z" transform="translate(133.72 286.49)"/><path class="cls-17" d="M1093.11,728.31a6,6,0,1,0,0-8.54A6.05,6.05,0,0,0,1093.11,728.31Z" transform="translate(133.72 286.49)"/><path class="cls-17" d="M1060.38,761a6,6,0,1,0,0-8.54A6.05,6.05,0,0,0,1060.38,761Z" transform="translate(133.72 286.49)"/><path class="cls-17" d="M1027.65,793.76a6,6,0,1,0,0-8.53A6,6,0,0,0,1027.65,793.76Z" transform="translate(133.72 286.49)"/><path class="cls-17" d="M994.92,826.49a6,6,0,1,0,0-8.54A6,6,0,0,0,994.92,826.49Z" transform="translate(133.72 286.49)"/><path class="cls-17" d="M962.19,859.22a6,6,0,1,0,0-8.53A6,6,0,0,0,962.19,859.22Z" transform="translate(133.72 286.49)"/><path class="cls-17" d="M929.46,892a6,6,0,1,0,0-8.54A6,6,0,0,0,929.46,892Z" transform="translate(133.72 286.49)"/><path class="cls-17" d="M896.73,924.68a6,6,0,1,0,0-8.54A6.05,6.05,0,0,0,896.73,924.68Z" transform="translate(133.72 286.49)"/><path class="cls-17" d="M1256.75,630.12a6,6,0,1,0,0-8.54A6,6,0,0,0,1256.75,630.12Z" transform="translate(133.72 286.49)"/><path class="cls-17" d="M1224,662.85a6,6,0,1,0,0-8.54A6,6,0,0,0,1224,662.85Z" transform="translate(133.72 286.49)"/><path class="cls-17" d="M1191.29,695.58a6,6,0,1,0,0-8.54A6,6,0,0,0,1191.29,695.58Z" transform="translate(133.72 286.49)"/><path class="cls-17" d="M1158.56,728.31a6,6,0,1,0,0-8.54A6.05,6.05,0,0,0,1158.56,728.31Z" transform="translate(133.72 286.49)"/><path class="cls-17" d="M1125.84,761a6,6,0,1,0,0-8.53A6,6,0,0,0,1125.84,761Z" transform="translate(133.72 286.49)"/><path class="cls-17" d="M1093.11,793.76a6,6,0,1,0,0-8.53A6,6,0,0,0,1093.11,793.76Z" transform="translate(133.72 286.49)"/><path class="cls-17" d="M1060.38,826.49a6,6,0,1,0,0-8.53A6,6,0,0,0,1060.38,826.49Z" transform="translate(133.72 286.49)"/><path class="cls-17" d="M1027.65,859.22a6,6,0,1,0,0-8.53A6,6,0,0,0,1027.65,859.22Z" transform="translate(133.72 286.49)"/><path class="cls-17" d="M994.92,892a6,6,0,1,0,0-8.54A6,6,0,0,0,994.92,892Z" transform="translate(133.72 286.49)"/><path class="cls-17" d="M962.19,924.68a6,6,0,1,0,0-8.54A6.05,6.05,0,0,0,962.19,924.68Z" transform="translate(133.72 286.49)"/><path class="cls-17" d="M929.46,957.41a6,6,0,1,0,0-8.54A6.05,6.05,0,0,0,929.46,957.41Z" transform="translate(133.72 286.49)"/></g><path class="cls-13" d="M459.59,210.73A49.45,49.45,0,1,0,509,161.28" transform="translate(133.72 286.49)"/><g class="cls-3"><path class="cls-18" d="M1164.94-285.93c-1.73,0-3.44,0-5.16,0" transform="translate(133.72 286.49)"/><path class="cls-19" d="M1149.44-285.68C895-277.51,691.16-68.63,691.16,187.85c0,261.65,212.12,473.77,473.78,473.77,258.21,0,468.17-206.56,473.66-463.46" transform="translate(133.72 286.49)"/><path class="cls-18" d="M1638.68,193c0-1.71,0-3.43,0-5.15" transform="translate(133.72 286.49)"/></g><path class="cls-20" d="M804.9,182.73a10.39,10.39,0,1,1-10.38-10.39A10.39,10.39,0,0,1,804.9,182.73Z" transform="translate(133.72 286.49)"/><circle class="cls-21" cx="1164.55" cy="422.8" r="17.8" transform="translate(664.77 1774) rotate(-79.2)"/><circle class="cls-22" cx="406.25" cy="833.23" r="14.1"/></g></g></svg>