<svg id="Isotipo" xmlns="http://www.w3.org/2000/svg" xmlns:xlink="http://www.w3.org/1999/xlink" viewBox="0 0 66.16 56.84"><defs><style>.cls-1,.cls-2,.cls-3,.cls-4{fill-rule:evenodd;}.cls-1{fill:url(#Degradado_sin_nombre_3);}.cls-2{fill:#fff;}.cls-3{fill:#bfbfbf;}.cls-4{fill:#000002;}</style><linearGradient id="Degradado_sin_nombre_3" x1="72.64" y1="-13.18" x2="-5.54" y2="59.95" gradientUnits="userSpaceOnUse"><stop offset="0.17" stop-color="#fdc700"/><stop offset="0.94" stop-color="#e20613"/></linearGradient></defs><path class="cls-1" d="M66.49,3.46c0-.66-1-2-1.43-1.88A3.92,3.92,0,0,0,63,2.8C59.39,4.17,56,5.8,56,5.8A12.55,12.55,0,0,0,45.74,4.56,25.35,25.35,0,0,0,34.83,3.38a8.61,8.61,0,0,0,1.44,2.54,26.25,26.25,0,0,0-3.88,1.17l0,0a9.41,9.41,0,0,0,5.25,3.6h0C25.34,18.49,20.68,31,6.18,32.64l-.26,0A32.54,32.54,0,0,0,20.26,34c-5.21,6.81-9.7,13.29-19.08,15.58H.92a32.59,32.59,0,0,0,14.43-.51h0c-.83,1.27-1.66,2.44-2.46,3.5h0c-.1.13-.2.25-.29.38l0,0-.27.34,0,0-.26.33,0,0-.25.31,0,0-.25.3,0,0-.25.3,0,0-.26.3v0c-.45.52-.87,1-1.27,1.41l0,0c-.07.06-.13.13-.19.19l-.06.06-.16.17L9.1,57,9,57.15l-.07.07-.13.12-.08.07-.12.11-.07.07-.11.1-.08.07-.1.08-.08.07L8,58,8,58l-.1.07-.06,0-.09.06-.06,0-.09.06,0,0-.13.07c3.65,0,14-3.82,20.55-11.61,0,0,7.6-4.11,11.89-15.2,1.82-4.74,7.81-10.17,13.54-13.81,0,0,15.2-8.89,13.13-14.35Z" transform="translate(-0.92 -1.58)"/><path class="cls-2" d="M66.49,3.45c.69,8.66-16.8,10.15-21.65,19.77a7.55,7.55,0,0,1-.1-3.43s-8.28,9.92-10.86,19.55a17.62,17.62,0,0,1,0-9.41c-8.48,8.12-9.72,24.56-26.52,28.49,3.65,0,14.48-1,21.07-8.8a40.25,40.25,0,0,1-4.25,6A43.86,43.86,0,0,0,43.1,42.54c-1.07,2.94-2,5.13-2,5.13C49.68,40,50.28,32.83,53.65,26A14.55,14.55,0,0,0,55,31.62c-.43-7,3.77-13.66,9.5-17.3C64.48,14.32,68.56,8.91,66.49,3.45Z" transform="translate(-0.92 -1.58)"/><path class="cls-3" d="M66.51,3.49l0,0c.69,8.66-16.8,10.15-21.65,19.77a7.55,7.55,0,0,1-.1-3.43s-8.28,9.92-10.86,19.55a17.62,17.62,0,0,1,0-9.41c-8.48,8.12-9.72,24.56-26.52,28.49,3.65,0,14.48-1,21.07-8.8a40.25,40.25,0,0,1-4.25,6C40.84,45.75,37,35.88,45.67,25.06a12.68,12.68,0,0,0,.08,5C50.9,16.29,69.61,13.3,66.5,3.5Z" transform="translate(-0.92 -1.58)"/><path class="cls-4" d="M52.76,7.47l-4.33.17s-.54,1.67.25,2.14,4.08-2.31,4.08-2.31" transform="translate(-0.92 -1.58)"/><path d="M63,3.22a2.66,2.66,0,0,0,1.24.83,2.33,2.33,0,0,0,2.19-.32c.4-.41-.92-2.28-1.36-2.15C63.85,2,62.71,2.72,63,3.22Z" transform="translate(-0.92 -1.58)"/></svg>