<svg id="Capa" xmlns="http://www.w3.org/2000/svg" xmlns:xlink="http://www.w3.org/1999/xlink" viewBox="0 0 224 49.74"><defs><style>.cls-1{fill:#bacde7;}.cls-2,.cls-3,.cls-4,.cls-5{fill-rule:evenodd;}.cls-2{fill:url(#Degradado_sin_nombre_1110);}.cls-3{fill:#fff;}.cls-4{fill:#bfbfbf;}.cls-5{fill:#000002;}</style><linearGradient id="Degradado_sin_nombre_1110" x1="65.75" y1="-10.28" x2="-2.66" y2="53.71" gradientUnits="userSpaceOnUse"><stop offset="0.15" stop-color="#00cf95"/><stop offset="0.83" stop-color="#006e48"/></linearGradient></defs><g id="Logo"><g id="Texto"><path class="cls-1" d="M85.82,12.78h4.33a1.53,1.53,0,0,1,1.5,1.55V41.26a1.53,1.53,0,0,1-1.5,1.54H86.46a2.19,2.19,0,0,1-1.88-1L73.51,25.3v16A1.53,1.53,0,0,1,72,42.8H67.68a1.53,1.53,0,0,1-1.54-1.54V14.33a1.54,1.54,0,0,1,1.54-1.55h3.69a2.24,2.24,0,0,1,1.88,1l11,16.47V14.33A1.54,1.54,0,0,1,85.82,12.78Z" transform="translate(-3 -2.63)"/><path class="cls-1" d="M114.12,35.85a1.54,1.54,0,0,1,1.55,1.55v3.86a1.54,1.54,0,0,1-1.55,1.54H98.34a1.54,1.54,0,0,1-1.54-1.54V14.33a1.54,1.54,0,0,1,1.54-1.55h15.4a1.54,1.54,0,0,1,1.54,1.55v3.85a1.53,1.53,0,0,1-1.54,1.51h-9.61v4.67h8.24a1.54,1.54,0,0,1,1.54,1.54v3.48a1.53,1.53,0,0,1-1.54,1.54h-8.24v4.93Z" transform="translate(-3 -2.63)"/><path class="cls-1" d="M137,35.85a1.53,1.53,0,0,1,1.5,1.55v3.86A1.53,1.53,0,0,1,137,42.8H121.46a1.53,1.53,0,0,1-1.5-1.54V14.33a1.53,1.53,0,0,1,1.5-1.55h4.33a1.53,1.53,0,0,1,1.5,1.55V35.85Z" transform="translate(-3 -2.63)"/><path class="cls-1" d="M164.56,34c0,4.89-4.25,9.3-11.75,9.3-5,0-9.69-1.71-11.58-6.08a1.58,1.58,0,0,1,1-2.06l3.9-1.2a1.53,1.53,0,0,1,1.8.68,5.21,5.21,0,0,0,4.8,2.45c2.53,0,4.38-1,4.38-3,0-2.28-2.92-2.58-6.31-3.43-6-1.5-8.75-4.25-8.75-9.27,0-5.79,4.81-9.22,11-9.22,4.54,0,8.44,2.11,10.12,5.84a1.52,1.52,0,0,1-1,2.1l-3.91,1a1.58,1.58,0,0,1-1.67-.68,4.06,4.06,0,0,0-3.82-1.93c-2.14,0-3.6,1.16-3.6,2.87,0,2.36,3.6,2.92,5.92,3.56C162.41,27,164.56,29.29,164.56,34Z" transform="translate(-3 -2.63)"/><path class="cls-1" d="M197.41,27.79c0,8.92-6.39,15.57-15.27,15.57s-15.26-6.65-15.26-15.57,6.39-15.52,15.26-15.52S197.41,18.91,197.41,27.79Zm-7.38,0c0-4.24-2.66-8.45-7.89-8.45s-7.89,4.21-7.89,8.45,2.66,8.49,7.89,8.49S190,32,190,27.79Z" transform="translate(-3 -2.63)"/><path class="cls-1" d="M221.17,12.78h4.33a1.54,1.54,0,0,1,1.5,1.55V41.26a1.53,1.53,0,0,1-1.5,1.54h-3.69a2.22,2.22,0,0,1-1.89-1L208.86,25.3v16a1.53,1.53,0,0,1-1.5,1.54H203a1.53,1.53,0,0,1-1.54-1.54V14.33A1.54,1.54,0,0,1,203,12.78h3.69a2.25,2.25,0,0,1,1.88,1l11,16.47V14.33A1.54,1.54,0,0,1,221.17,12.78Z" transform="translate(-3 -2.63)"/></g><g id="Isotipo"><path class="cls-2" d="M60.37,4.27c0-.57-.91-1.73-1.24-1.64a3.52,3.52,0,0,0-1.78,1.06c-3.18,1.2-6.2,2.64-6.2,2.64a11,11,0,0,0-8.93-1.09,22.29,22.29,0,0,0-9.54-1,7.32,7.32,0,0,0,1.25,2.23,22.16,22.16,0,0,0-3.39,1l0,0a8.11,8.11,0,0,0,4.58,3.16h0C24.37,17.43,20.29,28.39,7.6,29.81l-.22,0A28.54,28.54,0,0,0,19.92,31c-4.56,6-8.49,11.63-16.69,13.64H3a28.61,28.61,0,0,0,12.63-.45h0c-.73,1.11-1.46,2.14-2.16,3.07h0l-.25.33,0,0-.24.3,0,0c-.08.1-.15.2-.23.29l0,0-.22.27,0,0-.21.27,0,0-.22.26,0,0-.22.26,0,0c-.39.45-.76.87-1.11,1.23l0,0-.16.18-.06,0-.14.14-.06.06-.12.12-.07.07-.11.1-.07.07-.1.09-.07.07-.1.08-.06.06-.09.08-.07.05L9.21,52l-.06,0-.08.06-.06,0-.08.06,0,0-.08.05,0,0-.11.06c3.19,0,12.22-3.35,18-10.16,0,0,6.65-3.59,10.39-13.3,1.6-4.15,6.84-8.9,11.86-12.09,0,0,13.3-7.77,11.49-12.55Z" transform="translate(-3 -2.63)"/><path class="cls-3" d="M60.38,4.27c.6,7.57-14.71,8.88-19,17.29a6.64,6.64,0,0,1-.09-3s-7.24,8.69-9.5,17.12a15.44,15.44,0,0,1,0-8.24c-7.43,7.1-8.51,21.49-23.21,24.93,3.19,0,12.67-.88,18.44-7.7A34.67,34.67,0,0,1,23.37,50,38.33,38.33,0,0,0,39.91,38.47C39,41,38.2,43,38.2,43c7.47-6.68,8-13,10.94-19a12.88,12.88,0,0,0,1.16,4.94c-.37-6.1,3.3-12,8.32-15.14C58.62,13.78,62.19,9.05,60.38,4.27Z" transform="translate(-3 -2.63)"/><path class="cls-4" d="M60.39,4.31v0c.6,7.57-14.71,8.88-19,17.29a6.64,6.64,0,0,1-.09-3s-7.24,8.69-9.5,17.12a15.44,15.44,0,0,1,0-8.24c-7.43,7.1-8.51,21.49-23.21,24.93,3.19,0,12.67-.88,18.44-7.7A34.67,34.67,0,0,1,23.37,50c14.56-8.67,11.16-17.3,18.78-26.77a11.25,11.25,0,0,0,.08,4.37c4.5-12,20.88-14.67,18.15-23.24Z" transform="translate(-3 -2.63)"/><path class="cls-5" d="M48.36,7.78l-3.79.15s-.47,1.47.22,1.87,3.57-2,3.57-2" transform="translate(-3 -2.63)"/><path d="M57.31,4.07a2.32,2.32,0,0,0,1.09.72,2,2,0,0,0,1.92-.28c.34-.35-.81-2-1.19-1.88C58.07,3,57.06,3.63,57.31,4.07Z" transform="translate(-3 -2.63)"/></g></g></svg>