<svg id="_404" data-name="404" xmlns="http://www.w3.org/2000/svg" viewBox="0 0 409.71 409.41"><defs><style>.cls-2{fill:#ebebeb}.cls-3{fill:#dfdfdf}.cls-4{fill:#b8b8b8;opacity:.2}.cls-5{fill:#006e48}</style></defs><circle cx="247.3" cy="168.99" r="166.7" transform="rotate(-45 242.387 173.02)" style="fill:#fff"/><circle class="cls-2" cx="256.06" cy="259.52" r="30.81" transform="rotate(-39.95 250.79 264.286)"/><path class="cls-3" d="M227.61 262.39A30.78 30.78 0 0 1 281 241.47a30.78 30.78 0 1 0-47.49 39 30.57 30.57 0 0 1-5.9-18.08Z" transform="translate(-4.29 -2.3)"/><circle class="cls-2" cx="149.74" cy="139.31" r="42.49" transform="rotate(-86.36 146.365 140.446)"/><path class="cls-3" d="M110.5 143.26a42.44 42.44 0 0 1 73.61-28.85 42.44 42.44 0 1 0-65.49 53.75 42.26 42.26 0 0 1-8.12-24.9Z" transform="translate(-4.29 -2.3)"/><circle class="cls-2" cx="329.81" cy="77.95" r="18.07"/><path class="cls-3" d="M317.41 81.93a18 18 0 0 1 31.3-12.27 18 18 0 1 0-27.85 22.86 18 18 0 0 1-3.45-10.59Z" transform="translate(-4.29 -2.3)"/><circle class="cls-2" cx="229.93" cy="45.87" r="22.45" transform="rotate(-76.65 226.339 47.429)"/><path class="cls-3" d="M209.2 48a22.43 22.43 0 0 1 38.9-15.25 22.43 22.43 0 1 0-34.61 28.41A22.3 22.3 0 0 1 209.2 48Z" transform="translate(-4.29 -2.3)"/><path class="cls-2" d="M262.89 39.57a10.5 10.5 0 1 1 10.5-10.5 10.5 10.5 0 0 1-10.5 10.5Z" transform="translate(-4.29 -2.3)"/><path class="cls-3" d="M253.19 30.05a10.49 10.49 0 0 1 18.19-7.13 10.49 10.49 0 1 0-16.19 13.28 10.47 10.47 0 0 1-2-6.15Z" transform="translate(-4.29 -2.3)"/><path class="cls-2" d="M96.75 179.49a10.5 10.5 0 1 1 10.5-10.5 10.5 10.5 0 0 1-10.5 10.5Z" transform="translate(-4.29 -2.3)"/><path class="cls-3" d="M87.06 170a10.49 10.49 0 0 1 18.19-7.13 10.49 10.49 0 1 0-16.19 13.28 10.47 10.47 0 0 1-2-6.15Z" transform="translate(-4.29 -2.3)"/><path class="cls-2" d="M155.18 92.52a5.25 5.25 0 1 1 5.25-5.25 5.25 5.25 0 0 1-5.25 5.25Z" transform="translate(-4.29 -2.3)"/><path class="cls-3" d="M150.33 87.76a5.25 5.25 0 0 1 9.1-3.57 5.25 5.25 0 1 0-8.1 6.64 5.24 5.24 0 0 1-1-3.07Z" transform="translate(-4.29 -2.3)"/><path class="cls-2" d="M118.33 190a5.25 5.25 0 1 1 5.25-5.25 5.25 5.25 0 0 1-5.25 5.25Z" transform="translate(-4.29 -2.3)"/><path class="cls-3" d="M113.49 185.23a5.24 5.24 0 0 1 9.09-3.57 5.25 5.25 0 1 0-8.09 6.65 5.23 5.23 0 0 1-1-3.08Z" transform="translate(-4.29 -2.3)"/><path class="cls-2" d="M297.45 255.76a5.25 5.25 0 1 1 5.25-5.25 5.25 5.25 0 0 1-5.25 5.25Z" transform="translate(-4.29 -2.3)"/><path class="cls-3" d="M292.6 251a5.24 5.24 0 0 1 9.1-3.56 5.25 5.25 0 1 0-8.1 6.64 5.29 5.29 0 0 1-1-3.08Z" transform="translate(-4.29 -2.3)"/><path class="cls-2" d="M332.37 111a5.25 5.25 0 1 1 5.25-5.24 5.25 5.25 0 0 1-5.25 5.24Z" transform="translate(-4.29 -2.3)"/><path class="cls-3" d="M327.52 106.26a5.24 5.24 0 0 1 9.1-3.56 5.25 5.25 0 1 0-8.1 6.64 5.27 5.27 0 0 1-1-3.08Z" transform="translate(-4.29 -2.3)"/><path class="cls-2" d="M383.38 153.86a10.5 10.5 0 1 1 10.5-10.5 10.5 10.5 0 0 1-10.5 10.5Z" transform="translate(-4.29 -2.3)"/><path class="cls-3" d="M373.69 144.34a10.49 10.49 0 0 1 18.19-7.13 10.49 10.49 0 1 0-16.19 13.28 10.47 10.47 0 0 1-2-6.15Z" transform="translate(-4.29 -2.3)"/><path class="cls-2" d="M316 304.66a10.5 10.5 0 1 1 10.5-10.5 10.5 10.5 0 0 1-10.5 10.5Z" transform="translate(-4.29 -2.3)"/><path class="cls-3" d="M306.33 295.13a10.49 10.49 0 0 1 18.19-7.13 10.49 10.49 0 1 0-16.18 13.29 10.41 10.41 0 0 1-2.01-6.16Z" transform="translate(-4.29 -2.3)"/><circle class="cls-2" cx="294.78" cy="219.22" r="16.96"/><path class="cls-3" d="M283.41 223.1a16.94 16.94 0 0 1 29.38-11.52A16.95 16.95 0 1 0 286.64 233a16.92 16.92 0 0 1-3.23-9.9Z" transform="translate(-4.29 -2.3)"/><circle class="cls-2" cx="190.19" cy="264.4" r="16.96"/><path class="cls-3" d="M178.82 268.28a16.94 16.94 0 0 1 29.38-11.52 16.95 16.95 0 1 0-26.15 21.46 16.94 16.94 0 0 1-3.23-9.94Z" transform="translate(-4.29 -2.3)"/><path class="cls-4" d="M210.51 271.46A202.22 202.22 0 0 1 93.74 233.9a166.71 166.71 0 0 0 313.58-111.63c-23.72 86.35-102.98 149.62-196.81 149.19Z" transform="translate(-4.29 -2.3)"/><path class="cls-4" d="M224.33 301.46a202.11 202.11 0 0 1-111.46-33.92 166.65 166.65 0 0 0 301-93.65 203.21 203.21 0 0 1-189.54 127.57Z" transform="translate(-4.29 -2.3)"/><path class="cls-5" d="M265.94 139.55a22.51 22.51 0 0 1 3.18 3.36c-.6-.62-2.13-.73-4.12.91s-4.27.15-5.06-.58-1.81.58-1.81.58 0-3.54 1.74-4.7 3.13-2.12 6.07.43ZM246 166.46c.11.22 2.15 4.16 1.16 5.92a42.46 42.46 0 0 1-3.33 4.63s-2.23-4.12-1.37-6.36a11.68 11.68 0 0 1 3.54-4.19ZM219.9 191.07c.24-.07 2.73-.89 2-4.66l-2.61.74 1.13-2.37c-.37.17-8.93 4.22-13.1 3.72a6 6 0 0 1-2.19 0 12.34 12.34 0 0 0 2 1.9c6 4.56 14.75 2.94 14.75 2.94l-2-2.28ZM114 333.29l-.07-.07a.7.7 0 0 0-.1-.08l-.11-.09-.38-.31-.21-.18c-4.64-3.9-23.79-20.88-22.28-33.85a11.65 11.65 0 0 0-4.4 5.48 17.1 17.1 0 0 0-.91 3c-.75 3.61-1.42 10.09-3.42 16.06-1.49 4.42-3.69 8.56-7.2 11.05.09-.25 1.71-4.84 1.29-7.9 0 0-5.85 12.24-16.26 14.42a12.21 12.21 0 0 0 3.68-6.72 75.81 75.81 0 0 1-13.21 11.33h-.06A21 21 0 0 1 42 348.8a37.44 37.44 0 0 0 4.57-5.8c-.42.23-12.55 7-17.73 12.83.13 4.29.46 15.4.5 22.73 0 2.92 0 5.25-.12 6.29-.43 4.34-1.41 9.64 2.39 13.45s7 1 7 1c5.64 4.13 7.6 1 7.6 1a1.34 1.34 0 0 0 2.5 0c1.3-2.06-11.07-11.72-11.07-11.72s-.76-5.42.65-16.26 9.55-13.89 9.55-13.89c1.17-.6 2.31-1.19 3.45-1.75 17.12-8.51 30.31-12 42.3-15.34 4.76-1.32 9.33-2.6 13.89-4.15a17.61 17.61 0 0 0 6.49-3.78ZM225.81 392.33a12.62 12.62 0 0 1-.75-1.43v-.06a1 1 0 0 0 0-.1c-.12-.26-.23-.53-.34-.8-3.53-8.92-5.19-28.85-5.19-28.85l-1.15-7.31-2.37-15-2-12.44h-18.64c1 1.16 2.42 5.69 3.72 10.95.78 3.13 1.52 6.51 2.15 9.59.87 4.35 1.51 8.08 1.62 9.61a24 24 0 0 0 2.28 8.25s2.49 5.5 5.2 12.16c2.59 6.37 5.39 13.8 6.39 18.52 2.06 9.65 7.38 10.29 7.38 10.29s7.27 2.41 13.5 4.14c-9.01-4.14-7.46-10.58-11.8-17.52Z" transform="translate(-4.29 -2.3)"/><path d="M285.17 159.87c-3.1-2.38-4.62 3.4-8.6 5.57-.79.43-5 2.35-4.4-3.93a21.33 21.33 0 0 1 .49-3 18.11 18.11 0 0 0-3.39-15.4l-.08-.1a.31.31 0 0 0-.07-.09c-.6-.62-2.13-.73-4.12.91s-4.27.15-5.06-.58-1.81.58-1.81.58c-1.66 3.54-2.67 3.68-4.48 6.44-.87 1.33-1.35 2.49-2.11 3.82a19.85 19.85 0 0 1-1.73 2.53 30.34 30.34 0 0 1-2.34 2.59c-3.53 3.53-8.74 8.32-12.87 9.26a12.49 12.49 0 0 0-8.75 7.59c-1.74 3.91-6 8.31-9.11 9a19 19 0 0 0-6.79 2.47 8.33 8.33 0 0 1-2.58.92c4.17.5 12.73-3.55 13.1-3.72l-1.13 2.37 2.61-.74c.72 3.77-1.77 4.59-2 4.66l2 2.28s-8.76 1.62-14.75-2.94a12.34 12.34 0 0 1-2-1.9c2.61 9.9 13.16 14.1 13.16 14.1-3.63 13.6-20.39 31.52-20.39 31.52-7.55 9.48-20.89 12.06-36.25 13.32-3.95.32-8 .57-12.18.83-4.29.25-8.65.52-13 .89-.69.06-1.39.12-2.09.2h-.12c-9.83.94-19.61 2.56-28.54 6.05-7.21 2.81-12.88 7.67-17.52 13.27a77.29 77.29 0 0 0-5.46 7.52.33.33 0 0 1-.06.1c-5.72 8.91-9.69 18.15-13.61 23.34-7.7 10.18-26.57 14.42-26.57 14.42l2.61 1c-4.13 3-12.91 5.64-12.91 5.64l3 1.52c-5.82.85-13.29 7.59-13.64 7.92l4 .33c-9.74 5-12.35 19.54-12.56 20.83a.66.66 0 0 1 0 .09l2.39-1.84c-1.05 6.93-10.45 15.91-11 16.47 10.08-1.16 14.15-6.18 14.4-6.48-.12 1.31-2.48 4-2.48 4s3.15-.42 5.64-4.12a16.44 16.44 0 0 1 3.53-3.94c-.8 2.21 1.24 3.94 1.24 3.94a9.31 9.31 0 0 1 2.22-3.65C34 349.94 46.15 343.18 46.57 343a37.44 37.44 0 0 1-4.57 5.8 21 21 0 0 0 8.19-3.37h.06a75.81 75.81 0 0 0 13.21-11.33 12.21 12.21 0 0 1-3.68 6.72c10.41-2.18 16.26-14.42 16.26-14.42.42 3.06-1.2 7.65-1.29 7.9 3.51-2.49 5.71-6.63 7.2-11.05 2-6 2.67-12.45 3.42-16.06a17.1 17.1 0 0 1 .91-3 11.65 11.65 0 0 1 4.4-5.48c-1.51 13 17.64 29.95 22.28 33.85l.21.18.38.31.11.09.1.08.07.07c1.3 1.44 1.46 3.34.9 5.42a21.72 21.72 0 0 1-3.59 6.65l-.08.12a48.91 48.91 0 0 1-11.19 10.73 7.77 7.77 0 0 0-2.5 11.5 48.51 48.51 0 0 1 10.51 21.58c2.29 11.28 8.47 11.17 9.55 11.17a16.66 16.66 0 0 1 3.58.88 5.89 5.89 0 0 0 4.77.53c2.93 1.3 3.47-.53 3.47-.53h3.15c.44-2-8-4.79-12.37-9s-9.07-17.14-9.07-17.14a10.9 10.9 0 0 1-.59-1.49c-1-3.11-2.1-10.5 6.53-16.42a27.78 27.78 0 0 1 4.17-2.36 42.33 42.33 0 0 1 4.64-1.84c36.49-12.2 36.19-29.93 36.19-29.93 8.68 1.19 33.29 3.14 33.29 3.14H214l2 12.44 2.37 15 1.15 7.31s1.66 19.93 5.19 28.85c.11.27.22.54.34.8a1 1 0 0 1 0 .1v.06a12.62 12.62 0 0 0 .75 1.43c4.34 6.94 2.79 13.38 11.81 17.54l1.57.43c.68.18 1.29.32 1.84.41 4.68.85 4.74-1.07 4.74-1.07s9.69 3.47 10.55 1.41-5.85-6.83-12-11.39-4.77-10-5.09-15.39c-.05-.87 0-2.66 0-5.08.23-9.73 1.21-29.57 1.82-40.37.2-3.39.35-5.88.44-6.91.42-4.91.93-20.14 8.3-26 .3-.23.6-.46.92-.66 8.24-5.32 10.84-11.39 12.9-16.48 1.55-3.82 1.45-5.44 3.39-10.4.66-1.65 1.53-3.68 2.78-6.29 5-10.41 2.61-10.08 5-19.73s1.3-21.26 1.95-31.12a59.94 59.94 0 0 0 0-7 88.17 88.17 0 0 0-1.72-13.42c-.16-.87-.3-1.7-.42-2.47a35.24 35.24 0 0 1-.42-4.63c-.18-9.26 4.73-10.86 11.47-26.57 1.98-4.75-.46-7.23-.46-7.23Zm-38 12.51a42.46 42.46 0 0 1-3.33 4.63s-2.23-4.12-1.37-6.36a11.68 11.68 0 0 1 3.54-4.19c.08.22 2.12 4.16 1.13 5.92Z" transform="translate(-4.29 -2.3)" style="fill:#00cf95"/></svg>