<svg id="OBJECT" xmlns="http://www.w3.org/2000/svg" viewBox="0 0 451.23 384.81"><defs><style>.cls-2{opacity:.5}.cls-3{fill:#006e48}</style></defs><circle cx="287.39" cy="152.85" r="152.85" style="opacity:.5;fill:#ccc"/><path class="cls-2" d="M474.43 169.06c-3-2.31-4.47 3.28-8.32 5.38-.76.41-4.79 2.27-4.25-3.8a21.28 21.28 0 0 1 .48-2.91 17.56 17.56 0 0 0-3.28-14.89l-.08-.1s0-.05-.07-.08a20.45 20.45 0 0 0-3.07-3.24c-2.86-2.45-4.2-1.54-5.87-.43s-1.68 4.55-1.68 4.55c-1.6 3.42-2.58 3.56-4.33 6.22-.84 1.29-1.3 2.41-2 3.7a19.9 19.9 0 0 1-1.67 2.45 28.46 28.46 0 0 1-2.26 2.5c-3.41 3.42-8.45 8-12.44 8.95a12.09 12.09 0 0 0-8.46 7.34c-1.68 3.78-5.8 8-8.81 8.66a18.39 18.39 0 0 0-6.56 2.39 8.23 8.23 0 0 1-2.5.89 5.94 5.94 0 0 1-2.12 0c2.53 9.57 12.73 13.62 12.73 13.62-3.51 13.14-19.71 30.46-19.71 30.46-7.3 9.17-20.19 11.66-35 12.88-3.82.31-7.77.55-11.78.8-4.14.24-8.36.5-12.57.86l-2 .19h-.11c-9.5.92-19 2.48-27.59 5.85-7 2.72-12.45 7.42-16.94 12.83a73.41 73.41 0 0 0-5.28 7.27l-.06.1c-5.53 8.6-9.37 17.53-13.16 22.55-7.44 9.85-25.68 13.94-25.68 13.94l2.52.94c-4 2.93-12.48 5.45-12.48 5.45l2.93 1.47c-5.63.83-12.85 7.34-13.19 7.65l3.87.32c-9.42 4.81-11.94 18.9-12.14 20.14a.66.66 0 0 1 0 .09l2.31-1.78c-1 6.7-10.1 15.38-10.67 15.92 9.75-1.13 13.68-6 13.92-6.27-.11 1.27-2.4 3.85-2.4 3.85a8.62 8.62 0 0 0 5.45-4 16.09 16.09 0 0 1 3.42-3.81c-.77 2.14 1.2 3.81 1.2 3.81a8.86 8.86 0 0 1 2.15-3.52c.12 4.14.44 14.87.47 22 0 2.83 0 5.07-.11 6.08-.41 4.19-1.36 9.33 2.31 13s6.81.94 6.81.94c5.45 4 7.35.95 7.35.95a1.29 1.29 0 0 0 2.41 0c1.25-2-10.7-11.33-10.7-11.33s-.74-5.24.63-15.72 9.23-13.42 9.23-13.42c1.13-.59 2.23-1.16 3.33-1.69 16.55-8.23 29.3-11.62 40.9-14.83 4.59-1.27 9-2.51 13.41-4a17 17 0 0 0 6.29-3.64c1.26 1.39 1.41 3.22.87 5.24a20.82 20.82 0 0 1-3.47 6.43 1 1 0 0 1-.08.11 46.8 46.8 0 0 1-10.82 10.37 7.51 7.51 0 0 0-2.64 11.26 47 47 0 0 1 10.16 20.86c2.21 10.91 8.19 10.8 9.23 10.8a16.15 16.15 0 0 1 3.46.84 5.68 5.68 0 0 0 4.61.52c2.83 1.26 3.36-.52 3.36-.52h3c.42-1.88-7.76-4.62-12-8.7s-8.76-16.56-8.76-16.56a9.55 9.55 0 0 1-.57-1.45c-.95-3-2-10.14 6.31-15.87a28.23 28.23 0 0 1 4-2.29 39.64 39.64 0 0 1 4.49-1.78c35.26-11.79 35-28.93 35-28.93 8.39 1.15 32.18 3 32.18 3 1 1.12 2.33 5.5 3.59 10.59.75 3 1.47 6.29 2.08 9.27.84 4.2 1.46 7.81 1.57 9.29a23.32 23.32 0 0 0 2.19 8s2.42 5.32 5 11.76c2.51 6.15 5.21 13.33 6.18 17.89 2 9.34 7.13 10 7.13 10s7 2.32 13 4l1.52.42a15.8 15.8 0 0 0 1.78.39c4.53.83 4.58-1 4.58-1s9.37 3.36 10.2 1.37-5.66-6.6-11.64-11-4.43-9.71-4.72-14.9c-.05-.84 0-2.57 0-4.91.23-9.4 1.17-28.58 1.76-39 .19-3.27.34-5.69.43-6.68.4-4.75.89-19.46 8-25.15.29-.23.58-.44.88-.64 8-5.14 10.49-11 12.48-15.93 1.5-3.69 1.4-5.26 3.27-10.05.64-1.6 1.49-3.56 2.69-6.08 4.83-10.06 2.52-9.74 4.83-19.08s1.26-20.54 1.88-30.08a56 56 0 0 0 0-6.73 85.79 85.79 0 0 0-1.7-13c-.16-.84-.29-1.63-.41-2.38a36.47 36.47 0 0 1-.41-4.47c-.17-8.94 4.57-10.49 11.09-25.67 2-4.7-.36-7.09-.36-7.09Z" transform="translate(-24.39 -27.67)"/><path class="cls-2" d="M295.9 169.06c-3-2.31-4.47 3.28-8.32 5.38-.77.41-4.79 2.27-4.25-3.8a19.65 19.65 0 0 1 .47-2.91 17.53 17.53 0 0 0-3.28-14.89.86.86 0 0 1-.07-.1l-.07-.08a20.44 20.44 0 0 0-3.08-3.24c-2.86-2.45-4.19-1.54-5.87-.43s-1.68 4.55-1.68 4.55c-1.6 3.42-2.58 3.56-4.32 6.22-.83 1.29-1.3 2.41-2 3.7a19.9 19.9 0 0 1-1.67 2.45 30.47 30.47 0 0 1-2.27 2.5c-3.41 3.42-8.45 8-12.43 8.95a12.08 12.08 0 0 0-8.47 7.34c-1.67 3.78-5.79 8-8.8 8.66a18.51 18.51 0 0 0-6.57 2.39 8.19 8.19 0 0 1-2.49.89 5.92 5.92 0 0 1-2.12 0c2.52 9.57 12.72 13.62 12.72 13.62-3.5 13.14-19.71 30.46-19.71 30.46-7.29 9.17-20.18 11.66-35 12.88-3.81.31-7.76.55-11.77.8-4.14.24-8.36.5-12.57.86l-2 .19H150c-9.5.92-19 2.48-27.59 5.85-7 2.72-12.44 7.42-16.93 12.83a75 75 0 0 0-5.27 7.27.53.53 0 0 0-.06.1c-5.54 8.6-9.37 17.53-13.16 22.55-7.44 9.85-25.68 13.94-25.68 13.94l2.52.94c-4 2.93-12.48 5.45-12.48 5.45l2.89 1.62c-5.62.83-12.85 7.34-13.18 7.65l3.86.32c-9.41 4.81-11.94 18.9-12.14 20.14a.66.66 0 0 1 0 .09l2.31-1.78c-1 6.7-10.1 15.38-10.67 15.92 9.74-1.13 13.67-6 13.92-6.27-.12 1.27-2.4 3.85-2.4 3.85a8.64 8.64 0 0 0 5.45-4 16.21 16.21 0 0 1 3.41-3.81C44 360.28 46 362 46 362a8.86 8.86 0 0 1 2.15-3.52c.13 4.14.45 14.87.48 22 0 2.83 0 5.07-.11 6.08-.42 4.19-1.37 9.33 2.31 13s6.81.94 6.81.94c5.45 4 7.34.95 7.34.95a1.29 1.29 0 0 0 2.41 0c1.26-2-10.69-11.33-10.69-11.33s-.74-5.24.63-15.72 9.22-13.42 9.22-13.42c1.13-.59 2.24-1.16 3.34-1.69 16.54-8.23 29.29-11.62 40.89-14.83 4.6-1.27 9-2.51 13.42-4a17.07 17.07 0 0 0 6.28-3.64c1.26 1.39 1.41 3.22.86 5.24a20.86 20.86 0 0 1-3.48 6.43l-.07.11A47 47 0 0 1 117 358.9a7.52 7.52 0 0 0-2.47 11.1 46.93 46.93 0 0 1 10.17 20.86c2.2 10.91 8.18 10.8 9.22 10.8a16.29 16.29 0 0 1 3.47.84 5.68 5.68 0 0 0 4.61.5c2.83 1.26 3.36-.52 3.36-.52h3c.42-1.88-7.77-4.62-12-8.7s-8.76-16.56-8.76-16.56a9.55 9.55 0 0 1-.57-1.45c-1-3-2-10.14 6.3-15.87a27.82 27.82 0 0 1 4-2.29 39.45 39.45 0 0 1 4.48-1.78c35.27-11.79 35-28.93 35-28.93 8.39 1.15 32.18 3 32.18 3 1 1.12 2.34 5.5 3.59 10.59.76 3 1.48 6.29 2.08 9.27.85 4.2 1.46 7.81 1.57 9.29a23.2 23.2 0 0 0 2.2 8s2.41 5.32 5 11.76c2.51 6.15 5.21 13.33 6.18 17.89 2 9.34 7.13 10 7.13 10s7 2.32 13.05 4l1.52.42a15.8 15.8 0 0 0 1.78.39c4.52.83 4.57-1 4.57-1s9.37 3.36 10.21 1.37-5.66-6.6-11.64-11-4.61-9.65-4.92-14.88v-4.91c.23-9.4 1.18-28.58 1.77-39 .19-3.27.34-5.69.42-6.68.4-4.75.9-19.46 8-25.15.28-.23.58-.44.88-.64 8-5.14 10.48-11 12.48-15.93 1.49-3.69 1.39-5.26 3.27-10.05.64-1.6 1.48-3.56 2.69-6.08 4.82-10.06 2.52-9.74 4.82-19.08s1.26-20.54 1.89-30.08a58.15 58.15 0 0 0 0-6.73 85.79 85.79 0 0 0-1.7-13c-.16-.84-.28-1.63-.4-2.38a34.6 34.6 0 0 1-.41-4.47c-.18-8.94 4.57-10.49 11.08-25.67 2.15-4.7-.2-7.09-.2-7.09Z" transform="translate(-24.39 -27.67)"/><path class="cls-3" d="M370.54 149.42a20.44 20.44 0 0 1 3.08 3.24c-.58-.6-2.06-.71-4 .88s-4.13.14-4.89-.56-1.75.56-1.75.56 0-3.42 1.68-4.55 3.03-1.99 5.88.43ZM351.26 175.42c.1.21 2.07 4 1.12 5.73a42.32 42.32 0 0 1-3.22 4.47s-2.16-4-1.33-6.15a11.31 11.31 0 0 1 3.43-4.05ZM326.05 199.21c.23-.07 2.64-.86 1.93-4.5l-2.51.71 1.09-2.29c-.36.16-8.64 4.08-12.67 3.6a5.94 5.94 0 0 1-2.12 0 11.53 11.53 0 0 0 2 1.83c5.79 4.4 14.25 2.83 14.25 2.83l-2-2.2ZM223.68 336.68l-.07-.06-.09-.07-.11-.08-.36-.3-.21-.18c-4.49-3.77-23-20.19-21.53-32.72a11.23 11.23 0 0 0-4.26 5.3 14.82 14.82 0 0 0-.88 2.88c-.73 3.49-1.38 9.75-3.31 15.52-1.43 4.27-3.56 8.27-6.95 10.68.09-.24 1.65-4.68 1.25-7.64 0 0-5.66 11.83-15.72 13.94a11.81 11.81 0 0 0 3.56-6.49 73.6 73.6 0 0 1-12.77 10.95h-.06a20.31 20.31 0 0 1-7.92 3.27 36.76 36.76 0 0 0 4.25-5.68c-.41.22-12.13 6.76-17.14 12.41.13 4.14.45 14.87.48 22 0 2.83 0 5.07-.11 6.08-.42 4.19-1.36 9.33 2.31 13s6.81.94 6.81.94c5.45 4 7.35.95 7.35.95a1.28 1.28 0 0 0 2.4 0c1.26-2-10.69-11.33-10.69-11.33s-.74-5.24.63-15.72 9.22-13.42 9.22-13.42c1.14-.59 2.24-1.16 3.34-1.69 16.55-8.23 29.3-11.62 40.89-14.83 4.6-1.27 9-2.51 13.42-4a17 17 0 0 0 6.28-3.64ZM331.76 393.75a11.75 11.75 0 0 1-.73-1.38v-.06a.13.13 0 0 0 0-.09q-.17-.37-.33-.78c-3.41-8.62-5-27.88-5-27.88l-1.11-7.06-2.38-14.5-1.91-12h-18c1 1.12 2.33 5.5 3.59 10.59.75 3 1.47 6.29 2.08 9.27.84 4.2 1.46 7.81 1.57 9.29a23.06 23.06 0 0 0 2.19 8s2.42 5.32 5 11.76c2.51 6.15 5.21 13.33 6.18 17.89 2 9.34 7.13 10 7.13 10s7 2.32 13.05 4c-8.63-4.12-7.09-10.34-11.33-17.05Z" transform="translate(-24.39 -27.67)"/><path d="M389.14 169.06c-3-2.31-4.47 3.28-8.32 5.38-.76.41-4.79 2.27-4.25-3.8a19.83 19.83 0 0 1 .48-2.91 17.56 17.56 0 0 0-3.28-14.89l-.08-.1-.07-.08c-.58-.6-2.06-.71-4 .88s-4.13.14-4.89-.56-1.75.56-1.75.56c-1.6 3.42-2.58 3.56-4.33 6.22-.84 1.29-1.3 2.41-2 3.7a19.9 19.9 0 0 1-1.67 2.45 28.46 28.46 0 0 1-2.26 2.5c-3.42 3.42-8.46 8-12.44 8.95a12.07 12.07 0 0 0-8.46 7.34c-1.68 3.78-5.8 8-8.81 8.66a18.39 18.39 0 0 0-6.56 2.39 8.23 8.23 0 0 1-2.5.89c4 .48 12.31-3.44 12.67-3.6l-1.09 2.29 2.51-.71c.71 3.64-1.7 4.43-1.93 4.5l2 2.2s-8.46 1.57-14.25-2.83a11.53 11.53 0 0 1-2-1.83c2.53 9.57 12.73 13.62 12.73 13.62-3.51 13.14-19.72 30.46-19.72 30.46-7.29 9.17-20.18 11.66-35 12.88-3.82.31-7.77.55-11.78.8-4.15.24-8.36.5-12.58.86l-2 .19h-.11c-9.51.92-19 2.48-27.6 5.85-7 2.72-12.44 7.42-16.93 12.83a75 75 0 0 0-5.27 7.27l-.06.1c-5.53 8.6-9.37 17.53-13.16 22.55-7.44 9.85-25.68 13.94-25.68 13.94l2.52.94c-4 2.93-12.48 5.45-12.48 5.45l2.92 1.47c-5.62.83-12.84 7.34-13.18 7.65l3.87.32c-9.42 4.81-11.95 18.9-12.15 20.14a.31.31 0 0 1 0 .09l2.3-1.78c-1 6.7-10.09 15.38-10.66 15.92 9.74-1.13 13.68-6 13.92-6.27-.12 1.27-2.4 3.85-2.4 3.85a8.62 8.62 0 0 0 5.45-4 16.09 16.09 0 0 1 3.42-3.81c-.77 2.14 1.2 3.81 1.2 3.81a8.94 8.94 0 0 1 2.14-3.52c5-5.65 16.73-12.19 17.14-12.41a36.76 36.76 0 0 1-4.39 5.66 20.31 20.31 0 0 0 7.92-3.27h.06a73.6 73.6 0 0 0 12.77-10.95 11.81 11.81 0 0 1-3.56 6.49C181.36 341.81 187 330 187 330c.4 3-1.16 7.4-1.25 7.64 3.39-2.41 5.52-6.41 6.95-10.68 1.93-5.77 2.58-12 3.31-15.52a14.82 14.82 0 0 1 .88-2.88 11.23 11.23 0 0 1 4.26-5.3c-1.47 12.53 17 28.95 21.53 32.72l.21.18.36.3.11.08.09.07.07.06c1.26 1.39 1.41 3.22.87 5.24a20.82 20.82 0 0 1-3.47 6.43 1 1 0 0 1-.08.11 46.8 46.8 0 0 1-10.82 10.37 7.51 7.51 0 0 0-2.24 11.18 47.06 47.06 0 0 1 10.16 20.86c2.21 10.91 8.19 10.8 9.23 10.8a16.32 16.32 0 0 1 3.46.84 5.68 5.68 0 0 0 4.61.52c2.83 1.26 3.36-.52 3.36-.52h3c.42-1.88-7.76-4.62-12-8.7s-8.76-16.56-8.76-16.56a9.55 9.55 0 0 1-.57-1.45c-.95-3-2-10.14 6.31-15.87a28.23 28.23 0 0 1 4-2.29 39.64 39.64 0 0 1 4.49-1.78c35.26-11.79 35-28.93 35-28.93 8.38 1.15 32.18 3 32.18 3h18l1.91 12 2.29 14.49 1.11 7.06s1.6 19.26 5 27.88l.33.78a.13.13 0 0 1 0 .09.21.21 0 0 1 0 .06 11.75 11.75 0 0 0 .73 1.38c4.19 6.71 2.7 12.93 11.41 16.95l1.52.42a15.8 15.8 0 0 0 1.78.39c4.53.83 4.58-1 4.58-1s9.37 3.36 10.2 1.37-5.66-6.6-11.64-11-4.47-9.6-4.78-14.79c-.05-.84 0-2.57 0-4.91.22-9.4 1.17-28.58 1.76-39 .19-3.27.34-5.69.43-6.68.4-4.75.89-19.46 8-25.15.29-.23.58-.44.88-.64 8-5.14 10.48-11 12.48-15.93 1.49-3.69 1.39-5.26 3.27-10.05.64-1.6 1.49-3.56 2.69-6.08 4.83-10.06 2.52-9.74 4.83-19.08s1.25-20.54 1.88-30.08a58.18 58.18 0 0 0 0-6.73 85 85 0 0 0-1.71-13c-.15-.84-.28-1.63-.4-2.38a36.47 36.47 0 0 1-.41-4.47c-.17-8.94 4.57-10.49 11.09-25.67 2.02-4.7-.34-7.09-.34-7.09Zm-36.76 12.09a42.32 42.32 0 0 1-3.22 4.47s-2.16-4-1.33-6.15a11.31 11.31 0 0 1 3.43-4.05c.1.21 2.07 4.03 1.12 5.73Z" transform="translate(-24.39 -27.67)" style="fill:#00cf95"/></svg>