<svg xmlns="http://www.w3.org/2000/svg" xmlns:xlink="http://www.w3.org/1999/xlink" viewBox="0 0 1270 720" style="enable-background:new 0 0 1270 720" xml:space="preserve"><style>.st8{stroke-width:1.8716}.st10,.st12,.st14,.st8{fill:none;stroke:#fff;stroke-miterlimit:10}.st10{stroke-width:2.0311}.st12,.st14{stroke-linecap:round}.st14{stroke-dasharray:9.2467,9.2467}.st21{fill:#fff}.st24{fill:none;stroke:#fff;stroke-width:1.123;stroke-linecap:round;stroke-miterlimit:10;stroke-dasharray:10.3368,10.3368}</style><g id="Capa_1"><g id="Header"><defs><path id="SVGID_1_" d="M-47.6-8.97V650h-1387.46V-8.97H-47.6z"/></defs><clipPath id="SVGID_00000083089109413340633240000014425783533464176554_"><use xlink:href="#SVGID_1_" style="overflow:visible"/></clipPath><g style="opacity:.2;clip-path:url(#SVGID_00000083089109413340633240000014425783533464176554_)"><path class="st24" d="M-251.63-285.89c-254.49 8.18-458.28 217.05-458.28 473.53 0 261.66 212.12 473.77 473.78 473.77 258.21 0 468.18-206.56 473.67-463.46"/><path d="M237.62 192.8c.02-1.72.03-3.44.03-5.16" style="fill:none;stroke:#fff;stroke-width:1.123;stroke-linecap:round;stroke-miterlimit:10"/></g></g></g><g id="Capa_2"><defs><path id="SVGID_00000141434589176477959000000006687053088962500781_" d="M1270 0v720H0V0h1270z"/></defs><clipPath id="SVGID_00000021827901465711265800000013104875361452367293_"><use xlink:href="#SVGID_00000141434589176477959000000006687053088962500781_" style="overflow:visible"/></clipPath><g style="opacity:.2;clip-path:url(#SVGID_00000021827901465711265800000013104875361452367293_)"><path class="st8" d="M238.83 719.24h99.45M263.69 694.38h99.45M288.55 669.52H388M313.41 644.66h99.45M338.28 619.8h99.44M363.14 594.94h99.44M388 570.08h99.44M412.86 545.22h99.44M437.72 520.36h99.44M462.58 495.49h99.44M487.44 470.63h99.45M512.3 445.77h99.45M537.16 420.91h99.45"/></g><g style="opacity:.3;clip-path:url(#SVGID_00000021827901465711265800000013104875361452367293_)"><path class="st10" d="M1257.81-1.01v107.92M1230.83 25.97v107.92M1203.85 52.95v107.92M1176.87 79.93v107.92M1149.89 106.91v107.92M1122.91 133.89v107.92"/></g><g style="opacity:.15;clip-path:url(#SVGID_00000021827901465711265800000013104875361452367293_)"><path class="st12" d="m355.56 324.49 3.25 3.25-3.25 3.24"/><path style="fill:none;stroke:#fff;stroke-linecap:round;stroke-miterlimit:10;stroke-dasharray:9.2466,9.2466" d="M349.03 337.52 116.91 569.63"/><path class="st12" d="m113.65 572.9-3.25 3.25-3.25-3.25"/><path class="st14" d="M100.61 566.36-131.5 334.25M-128.23 317.95 103.88 85.84"/><path class="st12" d="m107.15 82.57 3.25-3.25 3.25 3.25"/><path class="st14" d="M120.18 89.11 352.3 321.22"/></g><path transform="rotate(-45.001 621.04 677.986)" style="clip-path:url(#SVGID_00000021827901465711265800000013104875361452367293_);fill:none;stroke:#005b74;stroke-linecap:round;stroke-miterlimit:10" d="M505.6 562.52h230.91v230.91H505.6z"/><path transform="rotate(-45.001 62.238 273.213)" style="opacity:.1;clip-path:url(#SVGID_00000021827901465711265800000013104875361452367293_);fill:none;stroke:#fff;stroke-miterlimit:10" d="M38.33 249.3h47.83v47.83H38.33z"/><path transform="rotate(-45.001 841.516 332.523)" style="opacity:.1;clip-path:url(#SVGID_00000021827901465711265800000013104875361452367293_);fill:#fff" d="M835.1 326.09h12.84v12.84H835.1z"/><path transform="rotate(-45.001 1239.31 486.217)" style="opacity:.1;clip-path:url(#SVGID_00000021827901465711265800000013104875361452367293_);fill:#fff" d="M1232.26 479.15h14.11v14.11h-14.11z"/><path transform="rotate(-45.001 41.79 612.503)" style="opacity:.1;clip-path:url(#SVGID_00000021827901465711265800000013104875361452367293_);fill:#fff" d="M32.21 602.9h19.16v19.16H32.21z"/><path style="opacity:.2;clip-path:url(#SVGID_00000021827901465711265800000013104875361452367293_);fill:none;stroke:#f2f2f2;stroke-width:3.6;stroke-linecap:round;stroke-miterlimit:10" d="M1122.92 33.01c-85.51 0-154.83 69.32-154.83 154.83s69.32 154.83 154.83 154.83c85.51 0 154.83-69.32 154.83-154.83"/><path style="opacity:.2;clip-path:url(#SVGID_00000021827901465711265800000013104875361452367293_);fill:none;stroke:#fff;stroke-width:3;stroke-linecap:round;stroke-miterlimit:10" d="M621.05 210.73c0-64.62-52.39-117.01-117.01-117.01-64.63 0-117.01 52.39-117.01 117.01s52.39 117.01 117.01 117.01"/><path style="opacity:.1;clip-path:url(#SVGID_00000021827901465711265800000013104875361452367293_);fill:none;stroke:#f2f2f2;stroke-width:3;stroke-miterlimit:10" d="M296.66 77.61c0 11.49-9.32 20.81-20.81 20.81-11.49 0-20.81-9.32-20.81-20.81s9.32-20.81 20.81-20.81c11.5 0 20.81 9.32 20.81 20.81z"/><g style="opacity:.3;clip-path:url(#SVGID_00000021827901465711265800000013104875361452367293_)"><path class="st21" d="M924.46 302.83a6.036 6.036 0 0 0 8.54 0 6.036 6.036 0 0 0 0-8.54 6.036 6.036 0 0 0-8.54 0c-2.35 2.36-2.35 6.19 0 8.54zM891.73 335.56a6.036 6.036 0 0 0 8.54 0 6.036 6.036 0 0 0 0-8.54 6.036 6.036 0 0 0-8.54 0c-2.35 2.36-2.35 6.19 0 8.54zM859.01 368.29c2.36 2.35 6.19 2.35 8.54 0a6.036 6.036 0 0 0 0-8.54c-2.35-2.36-6.18-2.36-8.54 0a6.036 6.036 0 0 0 0 8.54zM826.28 401.02a6.023 6.023 0 0 0 8.53 0 6.036 6.036 0 0 0 0-8.54 6.023 6.023 0 0 0-8.53 0 6.036 6.036 0 0 0 0 8.54zM793.55 433.75a6.036 6.036 0 0 0 8.54 0 6.054 6.054 0 0 0 0-8.54 6.036 6.036 0 0 0-8.54 0 6.036 6.036 0 0 0 0 8.54zM760.82 466.48a6.036 6.036 0 0 0 8.54 0 6.036 6.036 0 0 0 0-8.54c-2.35-2.36-6.18-2.36-8.54 0a6.036 6.036 0 0 0 0 8.54zM728.09 499.2a6.036 6.036 0 0 0 8.54 0c2.36-2.36 2.35-6.18 0-8.54-2.35-2.36-6.18-2.36-8.54 0-2.35 2.36-2.35 6.19 0 8.54zM695.36 531.94c2.36 2.35 6.18 2.36 8.54 0a6.036 6.036 0 0 0 0-8.54 6.036 6.036 0 0 0-8.54 0c-2.36 2.35-2.36 6.18 0 8.54zM662.63 564.67a6.054 6.054 0 0 0 8.54 0c2.36-2.36 2.36-6.19 0-8.54a6.036 6.036 0 0 0-8.54 0 6.045 6.045 0 0 0 0 8.54zM629.91 597.39a6.036 6.036 0 0 0 8.54 0c2.35-2.35 2.35-6.18 0-8.54a6.054 6.054 0 0 0-8.54 0c-2.36 2.36-2.36 6.19 0 8.54zM597.18 630.12a6.036 6.036 0 0 0 8.54 0 6.036 6.036 0 0 0 0-8.54c-2.36-2.35-6.18-2.36-8.54 0a6.036 6.036 0 0 0 0 8.54zM957.2 335.57c2.35 2.36 6.18 2.36 8.54 0 2.36-2.36 2.35-6.18 0-8.54a6.036 6.036 0 0 0-8.54 0 6.027 6.027 0 0 0 0 8.54zM924.46 368.29a6.054 6.054 0 0 0 8.54 0c2.36-2.36 2.36-6.19 0-8.54a6.036 6.036 0 0 0-8.54 0 6.054 6.054 0 0 0 0 8.54zM891.73 401.02c2.36 2.36 6.19 2.36 8.54 0 2.36-2.36 2.36-6.19 0-8.54a6.036 6.036 0 0 0-8.54 0 6.054 6.054 0 0 0 0 8.54zM859.01 433.75c2.35 2.36 6.18 2.36 8.54 0a6.036 6.036 0 0 0 0-8.54 6.036 6.036 0 0 0-8.54 0 6.036 6.036 0 0 0 0 8.54zM826.28 466.48c2.35 2.36 6.18 2.36 8.54 0 2.35-2.35 2.35-6.18 0-8.54a6.036 6.036 0 0 0-8.54 0 6.036 6.036 0 0 0 0 8.54zM793.55 499.21a6.045 6.045 0 0 0 8.54 0 6.045 6.045 0 0 0 0-8.54 6.036 6.036 0 0 0-8.54 0 6.036 6.036 0 0 0 0 8.54zM760.82 531.94c2.36 2.35 6.18 2.36 8.54 0 2.36-2.36 2.36-6.19 0-8.54a6.036 6.036 0 0 0-8.54 0 6.045 6.045 0 0 0 0 8.54zM728.09 564.67c2.36 2.35 6.18 2.36 8.54 0 2.35-2.36 2.35-6.19 0-8.54a6.036 6.036 0 0 0-8.54 0c-2.35 2.35-2.35 6.18 0 8.54zM695.36 597.39c2.35 2.36 6.18 2.36 8.54 0a6.036 6.036 0 0 0 0-8.54c-2.36-2.36-6.18-2.35-8.54 0-2.35 2.36-2.36 6.19 0 8.54zM662.64 630.12c2.35 2.36 6.18 2.36 8.54 0a6.054 6.054 0 0 0 0-8.54 6.036 6.036 0 0 0-8.54 0 6.027 6.027 0 0 0 0 8.54zM629.91 662.85a6.054 6.054 0 0 0 8.54 0 6.045 6.045 0 0 0 0-8.54 6.036 6.036 0 0 0-8.54 0 6.036 6.036 0 0 0 0 8.54zM989.92 368.29a6.036 6.036 0 0 0 8.54 0 6.036 6.036 0 0 0 0-8.54 6.036 6.036 0 0 0-8.54 0 6.036 6.036 0 0 0 0 8.54zM957.19 401.02a6.036 6.036 0 0 0 8.54 0 6.036 6.036 0 0 0 0-8.54 6.036 6.036 0 0 0-8.54 0c-2.36 2.36-2.35 6.18 0 8.54zM924.46 433.75a6.036 6.036 0 0 0 8.54 0c2.36-2.35 2.36-6.18 0-8.54-2.36-2.35-6.18-2.36-8.54 0a6.054 6.054 0 0 0 0 8.54zM891.73 466.48a6.036 6.036 0 0 0 8.54 0 6.036 6.036 0 0 0 0-8.54c-2.36-2.35-6.18-2.36-8.54 0a6.054 6.054 0 0 0 0 8.54zM859.01 499.2a6.036 6.036 0 0 0 8.54 0 6.036 6.036 0 0 0 0-8.54c-2.35-2.36-6.18-2.36-8.54 0-2.36 2.36-2.36 6.19 0 8.54zM826.28 531.94a6.036 6.036 0 0 0 8.54 0 6.027 6.027 0 0 0-.01-8.54 6.023 6.023 0 0 0-8.53 0c-2.36 2.35-2.36 6.18 0 8.54zM793.55 564.66a6.036 6.036 0 0 0 8.54 0 6.027 6.027 0 0 0-.01-8.54c-2.35-2.36-6.18-2.36-8.54 0-2.35 2.36-2.35 6.19.01 8.54zM760.82 597.39a6.036 6.036 0 0 0 8.54 0 6.036 6.036 0 0 0 0-8.54 6.045 6.045 0 0 0-8.54 0 6.045 6.045 0 0 0 0 8.54zM728.09 630.12c2.36 2.36 6.19 2.36 8.54 0a6.036 6.036 0 0 0 0-8.54 6.045 6.045 0 0 0-8.54 0c-2.35 2.36-2.35 6.19 0 8.54zM695.36 662.85a6.036 6.036 0 0 0 8.54 0 6.036 6.036 0 0 0 0-8.54 6.036 6.036 0 0 0-8.54 0 6.036 6.036 0 0 0 0 8.54zM662.63 695.58a6.036 6.036 0 0 0 8.54 0 6.036 6.036 0 0 0 0-8.54 6.036 6.036 0 0 0-8.54 0c-2.36 2.36-2.35 6.18 0 8.54zM1022.65 401.02a6.036 6.036 0 0 0 8.54 0 6.036 6.036 0 0 0 0-8.54 6.036 6.036 0 0 0-8.54 0 6.036 6.036 0 0 0 0 8.54zM989.92 433.75c2.35 2.36 6.18 2.36 8.54 0 2.36-2.35 2.36-6.18 0-8.54a6.036 6.036 0 0 0-8.54 0 6.036 6.036 0 0 0 0 8.54zM957.19 466.48a6.036 6.036 0 0 0 8.54 0c2.36-2.35 2.36-6.18 0-8.54a6.036 6.036 0 0 0-8.54 0c-2.35 2.36-2.36 6.18 0 8.54zM924.46 499.21a6.036 6.036 0 0 0 8.54 0 6.036 6.036 0 0 0 0-8.54 6.036 6.036 0 0 0-8.54 0c-2.35 2.36-2.36 6.18 0 8.54zM891.74 531.94a6.045 6.045 0 0 0 8.54 0 6.036 6.036 0 0 0 0-8.54 6.036 6.036 0 0 0-8.54 0c-2.36 2.35-2.36 6.18 0 8.54zM859.01 564.67c2.35 2.35 6.18 2.35 8.54 0a6.036 6.036 0 0 0 0-8.54 6.036 6.036 0 0 0-8.54 0c-2.36 2.35-2.36 6.18 0 8.54zM826.28 597.39a6.023 6.023 0 0 0 8.53 0 6.036 6.036 0 0 0 0-8.54 6.023 6.023 0 0 0-8.53 0 6.036 6.036 0 0 0 0 8.54zM793.55 630.12a6.036 6.036 0 0 0 8.54 0 6.054 6.054 0 0 0 0-8.54c-2.36-2.36-6.18-2.35-8.54 0a6.036 6.036 0 0 0 0 8.54zM760.82 662.85a6.054 6.054 0 0 0 8.54 0c2.36-2.36 2.36-6.19 0-8.54-2.35-2.36-6.18-2.36-8.54 0-2.35 2.36-2.36 6.18 0 8.54zM728.09 695.58a6.048 6.048 0 0 0 8.55 0 6.033 6.033 0 0 0-.01-8.53 6.036 6.036 0 0 0-8.54 8.53z"/><circle class="st21" cx="699.63" cy="724.04" r="6.04"/><path class="st21" d="M1055.38 433.75a6.036 6.036 0 0 0 8.54 0c2.35-2.35 2.35-6.18 0-8.54a6.036 6.036 0 0 0-8.54 0 6.036 6.036 0 0 0 0 8.54zM1022.65 466.48a6.036 6.036 0 0 0 8.54 0c2.36-2.35 2.36-6.18 0-8.54a6.036 6.036 0 0 0-8.54 0 6.036 6.036 0 0 0 0 8.54zM989.92 499.21c2.36 2.36 6.18 2.35 8.54 0a6.036 6.036 0 0 0 0-8.54 6.036 6.036 0 0 0-8.54 0c-2.36 2.35-2.36 6.18 0 8.54zM957.19 531.94a6.036 6.036 0 0 0 8.54 0c2.36-2.36 2.35-6.18 0-8.54a6.036 6.036 0 0 0-8.54 0c-2.36 2.35-2.36 6.18 0 8.54zM924.46 564.66a6.036 6.036 0 0 0 8.54 0 6.036 6.036 0 0 0 0-8.54 6.036 6.036 0 0 0-8.54 0c-2.35 2.36-2.35 6.19 0 8.54zM891.73 597.39a6.036 6.036 0 0 0 8.54 0 6.036 6.036 0 0 0 0-8.54c-2.36-2.35-6.18-2.36-8.54 0-2.35 2.36-2.35 6.19 0 8.54zM859.01 630.12c2.35 2.36 6.18 2.36 8.54 0a6.036 6.036 0 0 0 0-8.54 6.036 6.036 0 0 0-8.54 0 6.036 6.036 0 0 0 0 8.54zM826.28 662.85a6.036 6.036 0 0 0 8.54 0 6.036 6.036 0 0 0 0-8.54 6.036 6.036 0 0 0-8.54 0 6.036 6.036 0 0 0 0 8.54zM793.55 695.58a6.036 6.036 0 0 0 8.54 0 6.036 6.036 0 0 0 0-8.54 6.036 6.036 0 0 0-8.54 0 6.036 6.036 0 0 0 0 8.54zM760.82 728.31a6.036 6.036 0 0 0 8.54 0 6.036 6.036 0 0 0 0-8.54c-2.35-2.36-6.18-2.36-8.54 0a6.036 6.036 0 0 0 0 8.54z"/><circle class="st21" cx="1092.38" cy="462.21" r="6.04"/><path class="st21" d="M1055.38 499.2a6.036 6.036 0 0 0 8.54 0 6.054 6.054 0 0 0 0-8.54 6.036 6.036 0 0 0-8.54 0c-2.36 2.36-2.36 6.19 0 8.54zM1022.65 531.94c2.36 2.36 6.18 2.35 8.54 0a6.036 6.036 0 0 0 0-8.54 6.036 6.036 0 0 0-8.54 0c-2.36 2.35-2.36 6.18 0 8.54zM989.92 564.67a6.054 6.054 0 0 0 8.54 0 6.036 6.036 0 0 0 0-8.54 6.036 6.036 0 0 0-8.54 0c-2.36 2.35-2.36 6.18 0 8.54zM957.2 597.39c2.35 2.36 6.18 2.36 8.54 0a6.036 6.036 0 0 0 0-8.54 6.036 6.036 0 0 0-8.54 0 6.027 6.027 0 0 0 0 8.54zM924.46 630.12a6.036 6.036 0 0 0 8.54 0 6.036 6.036 0 0 0 0-8.54c-2.36-2.35-6.18-2.36-8.54 0a6.054 6.054 0 0 0 0 8.54zM891.73 662.85a6.036 6.036 0 0 0 8.54 0 6.036 6.036 0 0 0 0-8.54 6.036 6.036 0 0 0-8.54 0 6.054 6.054 0 0 0 0 8.54zM859.01 695.58c2.35 2.36 6.18 2.36 8.54 0a6.023 6.023 0 0 0 0-8.53c-2.35-2.36-6.18-2.36-8.54 0a6.023 6.023 0 0 0 0 8.53zM826.28 728.31a6.023 6.023 0 0 0 8.53 0 6.045 6.045 0 0 0 .01-8.54 6.036 6.036 0 0 0-8.54 0c-2.36 2.35-2.36 6.18 0 8.54zM1120.84 499.21a6.036 6.036 0 0 0 8.54 0 6.036 6.036 0 0 0 0-8.54 6.036 6.036 0 0 0-8.54 0 6.036 6.036 0 0 0 0 8.54zM1088.11 531.94a6.036 6.036 0 0 0 8.54 0 6.054 6.054 0 0 0 0-8.54 6.036 6.036 0 0 0-8.54 0c-2.36 2.35-2.36 6.18 0 8.54zM1055.38 564.67a6.045 6.045 0 0 0 8.54 0 6.036 6.036 0 0 0 0-8.54 6.036 6.036 0 0 0-8.54 0c-2.36 2.35-2.36 6.18 0 8.54zM1022.65 597.39a6.036 6.036 0 0 0 8.54 0 6.036 6.036 0 0 0 0-8.54 6.036 6.036 0 0 0-8.54 0c-2.36 2.36-2.36 6.19 0 8.54zM989.93 630.12c2.35 2.36 6.18 2.36 8.54 0a6.036 6.036 0 0 0 0-8.54c-2.36-2.36-6.18-2.35-8.54 0a6.018 6.018 0 0 0 0 8.54zM957.2 662.85c2.35 2.35 6.18 2.35 8.54 0a6.036 6.036 0 0 0 0-8.54 6.036 6.036 0 0 0-8.54 0 6.027 6.027 0 0 0 0 8.54zM924.46 695.58a6.036 6.036 0 0 0 8.54 0 6.036 6.036 0 0 0 0-8.54 6.036 6.036 0 0 0-8.54 0 6.054 6.054 0 0 0 0 8.54zM891.74 728.31a6.036 6.036 0 0 0 8.54 0 6.036 6.036 0 0 0 0-8.54 6.036 6.036 0 0 0-8.54 0 6.036 6.036 0 0 0 0 8.54zM1153.56 531.94c2.36 2.36 6.18 2.35 8.54 0a6.036 6.036 0 0 0 0-8.54 6.036 6.036 0 0 0-8.54 0c-2.35 2.35-2.35 6.18 0 8.54zM1120.84 564.67c2.36 2.35 6.18 2.35 8.53 0a6.036 6.036 0 0 0 0-8.54 6.036 6.036 0 0 0-8.54 0c-2.35 2.35-2.35 6.18.01 8.54zM1088.11 597.39a6.036 6.036 0 0 0 8.54 0 6.036 6.036 0 0 0 0-8.54c-2.36-2.36-6.18-2.35-8.54 0-2.36 2.36-2.36 6.19 0 8.54zM1055.38 630.12a6.036 6.036 0 0 0 8.54 0 6.036 6.036 0 0 0 0-8.54 6.036 6.036 0 0 0-8.54 0 6.036 6.036 0 0 0 0 8.54zM1022.65 662.85a6.036 6.036 0 0 0 8.54 0c2.36-2.35 2.36-6.18 0-8.54a6.036 6.036 0 0 0-8.54 0 6.036 6.036 0 0 0 0 8.54zM989.92 695.58c2.35 2.36 6.18 2.36 8.54 0a6.023 6.023 0 0 0 0-8.53 6.036 6.036 0 0 0-8.54 0 6.023 6.023 0 0 0 0 8.53zM957.2 728.31a6.023 6.023 0 0 0 8.53 0 6.045 6.045 0 0 0 .01-8.54 6.036 6.036 0 0 0-8.54 0 6.027 6.027 0 0 0 0 8.54zM1186.29 564.67a6.054 6.054 0 0 0 8.54 0 6.036 6.036 0 0 0 0-8.54 6.036 6.036 0 0 0-8.54 0 6.045 6.045 0 0 0 0 8.54zM1153.56 597.39a6.036 6.036 0 0 0 8.54 0 6.054 6.054 0 0 0 0-8.54c-2.36-2.36-6.18-2.35-8.54 0a6.054 6.054 0 0 0 0 8.54zM1120.83 630.12c2.36 2.36 6.19 2.36 8.54 0a6.036 6.036 0 0 0 0-8.54c-2.36-2.36-6.18-2.35-8.54 0a6.054 6.054 0 0 0 0 8.54zM1088.11 662.85a6.054 6.054 0 0 0 8.54 0 6.036 6.036 0 0 0 0-8.54 6.036 6.036 0 0 0-8.54 0 6.036 6.036 0 0 0 0 8.54zM1055.38 695.58a6.036 6.036 0 0 0 8.54 0 6.023 6.023 0 0 0 0-8.53 6.036 6.036 0 0 0-8.54 0 6.023 6.023 0 0 0 0 8.53z"/><circle class="st21" cx="1026.92" cy="724.04" r="6.04"/><path class="st21" d="M1219.02 597.39c2.35 2.36 6.18 2.36 8.54 0a6.036 6.036 0 0 0 0-8.54 6.054 6.054 0 0 0-8.54 0c-2.36 2.36-2.36 6.19 0 8.54zM1186.29 630.12a6.036 6.036 0 0 0 8.54 0 6.036 6.036 0 0 0 0-8.54 6.054 6.054 0 0 0-8.54 0 6.054 6.054 0 0 0 0 8.54zM1153.56 662.85a6.054 6.054 0 0 0 8.54 0 6.054 6.054 0 0 0 0-8.54 6.036 6.036 0 0 0-8.54 0 6.054 6.054 0 0 0 0 8.54zM1120.83 695.58a6.036 6.036 0 0 0 8.54 0 6.036 6.036 0 0 0 0-8.54 6.036 6.036 0 0 0-8.54 0 6.054 6.054 0 0 0 0 8.54zM1088.11 728.31a6.036 6.036 0 0 0 8.54 0 6.054 6.054 0 0 0 0-8.54 6.036 6.036 0 0 0-8.54 0 6.036 6.036 0 0 0 0 8.54zM1251.75 630.12a6.036 6.036 0 0 0 8.54 0 6.036 6.036 0 0 0 0-8.54c-2.35-2.35-6.18-2.35-8.54 0-2.35 2.36-2.36 6.18 0 8.54zM1219.02 662.85c2.35 2.36 6.18 2.36 8.54 0a6.036 6.036 0 0 0 0-8.54 6.036 6.036 0 0 0-8.54 0c-2.35 2.36-2.36 6.18 0 8.54zM1186.29 695.58c2.35 2.36 6.18 2.36 8.54 0a6.023 6.023 0 0 0 0-8.53 6.036 6.036 0 0 0-8.54 8.53zM1153.56 728.31a6.036 6.036 0 0 0 8.54 0 6.036 6.036 0 0 0 0-8.54 6.036 6.036 0 0 0-8.54 0 6.054 6.054 0 0 0 0 8.54z"/></g><path style="opacity:.15;clip-path:url(#SVGID_00000021827901465711265800000013104875361452367293_);fill:none;stroke:#fff;stroke-width:1.5;stroke-linecap:round;stroke-miterlimit:10" d="M454.59 210.73c0 27.31 22.14 49.45 49.45 49.45 27.31 0 49.45-22.14 49.45-49.45s-22.14-49.45-49.45-49.45"/><path class="st24" d="M1144.44-285.68C889.95-277.5 686.16-68.63 686.16 187.85c0 261.66 212.12 473.77 473.78 473.77 258.21 0 468.18-206.56 473.67-463.46" style="opacity:.2;clip-path:url(#SVGID_00000021827901465711265800000013104875361452367293_)"/><path style="opacity:.2;clip-path:url(#SVGID_00000021827901465711265800000013104875361452367293_);fill:none;stroke:#fff;stroke-width:1.4976;stroke-miterlimit:10" d="M799.9 182.73c0 5.74-4.65 10.39-10.39 10.39s-10.39-4.65-10.39-10.39 4.65-10.39 10.39-10.39 10.39 4.65 10.39 10.39z"/><circle transform="rotate(-79.199 1159.58 422.77)" style="opacity:.1;clip-path:url(#SVGID_00000021827901465711265800000013104875361452367293_);fill:none;stroke:#fff;stroke-width:2.5665;stroke-miterlimit:10" cx="1159.55" cy="422.8" r="17.8"/><circle style="opacity:.3;clip-path:url(#SVGID_00000021827901465711265800000013104875361452367293_);fill:none;stroke:#fff;stroke-width:2.0323;stroke-miterlimit:10" cx="267.53" cy="546.74" r="14.1"/></g></svg>