<svg id="grafico" xmlns="http://www.w3.org/2000/svg" viewBox="0 0 1772.99 1245.66"><defs><clipPath id="clip-path" transform="translate(133.72 286.49)"><path d="M1280 0v720H0V0Z" style="fill:none"/></clipPath><style>.cls-13,.cls-18,.cls-4,.cls-6,.cls-8{fill:none}.cls-3{opacity:.2}.cls-13,.cls-18,.cls-4,.cls-6,.cls-8{stroke:#fff;stroke-miterlimit:10}.cls-4{stroke-width:1.87px}.cls-5{opacity:.3}.cls-6{stroke-width:2.03px}.cls-13{opacity:.15}.cls-13,.cls-18,.cls-8{stroke-linecap:round}.cls-13{stroke-width:1.5px}.cls-15{opacity:.1}.cls-15,.cls-17{fill:#fff}.cls-18{stroke-width:1.12px}</style></defs><g style="clip-path:url(#clip-path)" id="formas"><g class="cls-3"><path class="cls-4" d="M377.55 1005.73H477M402.41 980.87h99.45M427.27 956.01h99.45M452.13 931.15h99.45M477 906.29h99.44M501.86 881.43h99.44M526.72 856.57h99.44M551.58 831.71h99.44M576.44 806.85h99.44M601.3 781.99h99.44M626.16 757.12h99.45M651.02 732.26h99.45M675.88 707.4h99.45"/></g><g class="cls-5"><path class="cls-6" d="M1585.39 96.63v107.91M1558.41 123.61v107.92M1531.43 150.59v107.92M1504.45 177.56v107.92M1477.47 204.54v107.92M1450.49 231.53v107.91M1423.51 258.51v107.91M1396.53 285.49V393.4M1369.55 312.46v107.92M1342.57 339.44v107.92M1315.59 366.42v107.92M1288.62 393.4v107.92M1261.63 420.38V528.3"/></g><g style="opacity:.15"><path class="cls-8" d="m494.29 610.98 3.24 3.25-3.24 3.24"/><path style="stroke-dasharray:9.25 9.25;stroke-linecap:round;stroke-miterlimit:10;stroke:#fff;fill:none" d="M487.75 624.01 255.64 856.12"/><path class="cls-8" d="m252.37 859.39-3.25 3.25-3.25-3.25"/><path style="stroke-dasharray:9.25 9.25;stroke-linecap:round;stroke-miterlimit:10;stroke:#fff;fill:none" d="M239.34 852.85 7.22 620.74"/><path class="cls-8" d="m3.95 617.47-3.24-3.24 3.24-3.25"/><path style="stroke-dasharray:9.25 9.25;stroke-linecap:round;stroke-miterlimit:10;stroke:#fff;fill:none" d="M10.49 604.44 242.6 372.33"/><path class="cls-8" d="m245.87 369.06 3.25-3.25 3.25 3.25"/><path style="stroke-dasharray:9.25 9.25;stroke-linecap:round;stroke-miterlimit:10;stroke:#fff;fill:none" d="m258.9 375.6 232.12 232.11"/></g><path class="cls-13" transform="rotate(-25.92 1642.52 -115.327)" d="M837.6-83.48h230.91v230.91H837.6z"/><path transform="rotate(-45 479.93 255.037)" style="opacity:.1;stroke-miterlimit:10;stroke:#fff;fill:none" d="M43.33 249.3h47.83v47.83H43.33z"/><path class="cls-15" transform="rotate(-45 1259.204 314.34)" d="M840.1 326.09h12.84v12.84H840.1z"/><path class="cls-15" transform="rotate(-45 1656.986 468.034)" d="M1237.26 479.15h14.11v14.11h-14.11z"/><path class="cls-15" transform="rotate(-45 459.482 594.336)" d="M37.21 602.9h19.16v19.16H37.21z"/><path d="M301.66 77.61a20.81 20.81 0 1 1-20.81-20.81 20.81 20.81 0 0 1 20.81 20.81Z" transform="translate(133.72 286.49)" style="stroke:#f2f2f2;stroke-width:3px;opacity:.1;stroke-miterlimit:10;fill:none"/><g class="cls-5"><path class="cls-17" d="M929.46 302.83a6 6 0 1 0 0-8.53 6 6 0 0 0 0 8.53ZM896.73 335.56a6 6 0 1 0 0-8.53 6 6 0 0 0 0 8.53ZM864 368.29a6 6 0 1 0 0-8.54 6 6 0 0 0 0 8.54ZM831.28 401a6 6 0 1 0 0-8.54 6 6 0 0 0 0 8.54ZM798.55 433.75a6 6 0 1 0 0-8.54 6 6 0 0 0 0 8.54ZM765.82 466.48a6 6 0 1 0 0-8.54 6 6 0 0 0 0 8.54ZM733.09 499.2a6 6 0 1 0 0-8.53 6 6 0 0 0 0 8.53ZM700.36 531.94a6 6 0 1 0 0-8.54 6.05 6.05 0 0 0 0 8.54ZM667.63 564.67a6 6 0 1 0 0-8.54 6.05 6.05 0 0 0 0 8.54ZM634.91 597.39a6 6 0 1 0 0-8.54 6 6 0 0 0 0 8.54ZM602.18 630.12a6 6 0 1 0 0-8.54 6 6 0 0 0 0 8.54ZM962.2 335.57a6 6 0 1 0 0-8.54 6 6 0 0 0 0 8.54ZM929.46 368.29a6 6 0 1 0 0-8.54 6 6 0 0 0 0 8.54ZM896.73 401a6 6 0 1 0 0-8.54 6 6 0 0 0 0 8.54ZM864 433.75a6 6 0 1 0 0-8.54 6 6 0 0 0 0 8.54ZM831.28 466.48a6 6 0 1 0 0-8.54 6 6 0 0 0 0 8.54ZM798.55 499.21a6 6 0 1 0 0-8.54 6 6 0 0 0 0 8.54ZM765.82 531.94a6 6 0 1 0 0-8.54 6.05 6.05 0 0 0 0 8.54ZM733.09 564.67a6 6 0 1 0 0-8.54 6.07 6.07 0 0 0 0 8.54ZM700.36 597.39a6 6 0 1 0 0-8.53 6 6 0 0 0 0 8.53ZM667.64 630.12a6 6 0 1 0 0-8.54 6 6 0 0 0 0 8.54ZM634.91 662.85a6 6 0 1 0 0-8.54 6 6 0 0 0 0 8.54ZM994.92 368.29a6 6 0 1 0 0-8.54 6 6 0 0 0 0 8.54ZM962.19 401a6 6 0 1 0 0-8.54 6 6 0 0 0 0 8.54ZM929.46 433.75a6 6 0 1 0 0-8.54 6 6 0 0 0 0 8.54ZM896.73 466.48a6 6 0 1 0 0-8.54 6 6 0 0 0 0 8.54ZM864 499.2a6 6 0 1 0 0-8.54 6 6 0 0 0 0 8.54ZM831.28 531.94a6 6 0 1 0 0-8.54 6.05 6.05 0 0 0 0 8.54ZM798.55 564.66a6 6 0 1 0 0-8.53 6 6 0 0 0 0 8.53ZM765.82 597.39a6 6 0 1 0 0-8.54 6 6 0 0 0 0 8.54ZM733.09 630.12a6 6 0 1 0 0-8.54 6 6 0 0 0 0 8.54ZM700.36 662.85a6 6 0 1 0 0-8.54 6 6 0 0 0 0 8.54ZM667.63 695.58a6 6 0 1 0 0-8.54 6 6 0 0 0 0 8.54ZM1027.65 401a6 6 0 1 0 0-8.54 6 6 0 0 0 0 8.54ZM994.92 433.75a6 6 0 1 0 0-8.54 6 6 0 0 0 0 8.54ZM962.19 466.48a6 6 0 1 0 0-8.54 6 6 0 0 0 0 8.54ZM929.46 499.21a6 6 0 1 0 0-8.54 6 6 0 0 0 0 8.54ZM896.74 531.94a6 6 0 1 0 0-8.54 6.05 6.05 0 0 0 0 8.54ZM864 564.67a6 6 0 1 0 0-8.54 6.05 6.05 0 0 0 0 8.54ZM831.28 597.39a6 6 0 1 0 0-8.53 6 6 0 0 0 0 8.53ZM798.55 630.12a6 6 0 1 0 0-8.54 6 6 0 0 0 0 8.54ZM765.82 662.85a6 6 0 1 0 0-8.54 6 6 0 0 0 0 8.54ZM733.09 695.58a6 6 0 1 0 0-8.54 6 6 0 0 0 0 8.54Z" transform="translate(133.72 286.49)"/><circle class="cls-17" cx="838.35" cy="1010.53" r="6.04"/><path class="cls-17" d="M1060.38 433.75a6 6 0 1 0 0-8.54 6 6 0 0 0 0 8.54ZM1027.65 466.48a6 6 0 1 0 0-8.54 6 6 0 0 0 0 8.54ZM994.92 499.21a6 6 0 1 0 0-8.54 6 6 0 0 0 0 8.54ZM962.19 531.94a6 6 0 1 0 0-8.54 6.05 6.05 0 0 0 0 8.54ZM929.46 564.66a6 6 0 1 0 0-8.54 6 6 0 0 0 0 8.54ZM896.73 597.39a6 6 0 1 0 0-8.54 6 6 0 0 0 0 8.54ZM864 630.12a6 6 0 1 0 0-8.54 6 6 0 0 0 0 8.54ZM831.28 662.85a6 6 0 1 0 0-8.54 6 6 0 0 0 0 8.54ZM798.55 695.58a6 6 0 1 0 0-8.54 6 6 0 0 0 0 8.54ZM765.82 728.31a6 6 0 1 0 0-8.54 6.05 6.05 0 0 0 0 8.54ZM733.09 761a6 6 0 1 0 0-8.54 6.05 6.05 0 0 0 0 8.54Z" transform="translate(133.72 286.49)"/><circle class="cls-17" cx="1231.1" cy="748.7" r="6.04"/><path class="cls-17" d="M1060.38 499.2a6 6 0 1 0 0-8.53 6 6 0 0 0 0 8.53ZM1027.65 531.94a6 6 0 1 0 0-8.54 6.05 6.05 0 0 0 0 8.54ZM994.92 564.67a6 6 0 1 0 0-8.54 6.05 6.05 0 0 0 0 8.54ZM962.2 597.39a6 6 0 1 0 0-8.54 6 6 0 0 0 0 8.54ZM929.46 630.12a6 6 0 1 0 0-8.54 6 6 0 0 0 0 8.54ZM896.73 662.85a6 6 0 1 0 0-8.54 6 6 0 0 0 0 8.54ZM864 695.58a6 6 0 1 0 0-8.54 6 6 0 0 0 0 8.54ZM831.28 728.31a6 6 0 1 0 0-8.54 6 6 0 0 0 0 8.54ZM798.55 761a6 6 0 1 0 0-8.54 6 6 0 0 0 0 8.54ZM765.82 793.76a6 6 0 1 0 0-8.53 6 6 0 0 0 0 8.53ZM1125.84 499.21a6 6 0 1 0 0-8.54 6 6 0 0 0 0 8.54ZM1093.11 531.94a6 6 0 1 0 0-8.54 6.05 6.05 0 0 0 0 8.54ZM1060.38 564.67a6 6 0 1 0 0-8.54 6.05 6.05 0 0 0 0 8.54ZM1027.65 597.39a6 6 0 1 0 0-8.53 6 6 0 0 0 0 8.53ZM994.93 630.12a6 6 0 1 0 0-8.54 6 6 0 0 0 0 8.54ZM962.2 662.85a6 6 0 1 0 0-8.54 6 6 0 0 0 0 8.54ZM929.46 695.58a6 6 0 1 0 0-8.54 6 6 0 0 0 0 8.54ZM896.74 728.31a6 6 0 1 0 0-8.54 6.05 6.05 0 0 0 0 8.54ZM864 761a6 6 0 1 0 0-8.54 6.05 6.05 0 0 0 0 8.54ZM831.28 793.77a6 6 0 1 0 0-8.54 6 6 0 0 0 0 8.54ZM798.55 826.49a6 6 0 1 0 0-8.53 6 6 0 0 0 0 8.53ZM1158.56 531.94a6 6 0 1 0 0-8.54 6.05 6.05 0 0 0 0 8.54ZM1125.84 564.67a6 6 0 1 0 0-8.54 6 6 0 0 0 0 8.54ZM1093.11 597.39a6 6 0 1 0 0-8.54 6 6 0 0 0 0 8.54ZM1060.38 630.12a6 6 0 1 0 0-8.54 6 6 0 0 0 0 8.54ZM1027.65 662.85a6 6 0 1 0 0-8.54 6 6 0 0 0 0 8.54ZM994.92 695.58a6 6 0 1 0 0-8.54 6 6 0 0 0 0 8.54ZM962.2 728.31a6 6 0 1 0 0-8.54 6 6 0 0 0 0 8.54ZM929.46 761a6 6 0 1 0 0-8.54 6 6 0 0 0 0 8.54ZM896.73 793.77a6 6 0 1 0 0-8.54 6 6 0 0 0 0 8.54ZM864 826.49a6 6 0 1 0 0-8.54 6 6 0 0 0 0 8.54ZM831.28 859.22a6 6 0 1 0 0-8.53 6 6 0 0 0 0 8.53ZM1191.29 564.67a6 6 0 1 0 0-8.54 6.05 6.05 0 0 0 0 8.54ZM1158.56 597.39a6 6 0 1 0 0-8.54 6 6 0 0 0 0 8.54ZM1125.83 630.12a6 6 0 1 0 0-8.54 6 6 0 0 0 0 8.54ZM1093.11 662.85a6 6 0 1 0 0-8.54 6 6 0 0 0 0 8.54ZM1060.38 695.58a6 6 0 1 0 0-8.54 6 6 0 0 0 0 8.54Z" transform="translate(133.72 286.49)"/><circle class="cls-17" cx="1165.64" cy="1010.53" r="6.04"/><path class="cls-17" d="M994.92 761a6 6 0 1 0 0-8.54 6.05 6.05 0 0 0 0 8.54ZM962.2 793.76a6 6 0 1 0 0-8.53 6 6 0 0 0 0 8.53ZM929.46 826.49a6 6 0 1 0 0-8.53 6 6 0 0 0 0 8.53ZM896.73 859.22a6 6 0 1 0 0-8.54 6 6 0 0 0 0 8.54ZM864 892a6 6 0 1 0 0-8.54 6 6 0 0 0 0 8.54ZM1224 597.39a6 6 0 1 0 0-8.54 6 6 0 0 0 0 8.54ZM1191.29 630.12a6 6 0 1 0 0-8.54 6 6 0 0 0 0 8.54ZM1158.56 662.85a6 6 0 1 0 0-8.54 6 6 0 0 0 0 8.54ZM1125.83 695.58a6 6 0 1 0 0-8.54 6 6 0 0 0 0 8.54ZM1093.11 728.31a6 6 0 1 0 0-8.54 6.05 6.05 0 0 0 0 8.54ZM1060.38 761a6 6 0 1 0 0-8.54 6.05 6.05 0 0 0 0 8.54ZM1027.65 793.76a6 6 0 1 0 0-8.53 6 6 0 0 0 0 8.53ZM994.92 826.49a6 6 0 1 0 0-8.54 6 6 0 0 0 0 8.54ZM962.19 859.22a6 6 0 1 0 0-8.53 6 6 0 0 0 0 8.53ZM929.46 892a6 6 0 1 0 0-8.54 6 6 0 0 0 0 8.54ZM896.73 924.68a6 6 0 1 0 0-8.54 6.05 6.05 0 0 0 0 8.54ZM1256.75 630.12a6 6 0 1 0 0-8.54 6 6 0 0 0 0 8.54ZM1224 662.85a6 6 0 1 0 0-8.54 6 6 0 0 0 0 8.54ZM1191.29 695.58a6 6 0 1 0 0-8.54 6 6 0 0 0 0 8.54ZM1158.56 728.31a6 6 0 1 0 0-8.54 6.05 6.05 0 0 0 0 8.54ZM1125.84 761a6 6 0 1 0 0-8.53 6 6 0 0 0 0 8.53ZM1093.11 793.76a6 6 0 1 0 0-8.53 6 6 0 0 0 0 8.53ZM1060.38 826.49a6 6 0 1 0 0-8.53 6 6 0 0 0 0 8.53ZM1027.65 859.22a6 6 0 1 0 0-8.53 6 6 0 0 0 0 8.53ZM994.92 892a6 6 0 1 0 0-8.54 6 6 0 0 0 0 8.54ZM962.19 924.68a6 6 0 1 0 0-8.54 6.05 6.05 0 0 0 0 8.54ZM929.46 957.41a6 6 0 1 0 0-8.54 6.05 6.05 0 0 0 0 8.54Z" transform="translate(133.72 286.49)"/></g><path class="cls-13" d="M459.59 210.73A49.45 49.45 0 1 0 509 161.28" transform="translate(133.72 286.49)"/><g class="cls-3"><path class="cls-18" d="M1164.94-285.93h-5.16" transform="translate(133.72 286.49)"/><path d="M1149.44-285.68C895-277.51 691.16-68.63 691.16 187.85c0 261.65 212.12 473.77 473.78 473.77 258.21 0 468.17-206.56 473.66-463.46" transform="translate(133.72 286.49)" style="stroke-dasharray:10.34 10.34;stroke-width:1.12px;stroke-linecap:round;stroke-miterlimit:10;stroke:#fff;fill:none"/><path class="cls-18" d="M1638.68 193v-5.15" transform="translate(133.72 286.49)"/></g><path d="M804.9 182.73a10.39 10.39 0 1 1-10.38-10.39 10.39 10.39 0 0 1 10.38 10.39Z" transform="translate(133.72 286.49)" style="stroke-width:1.5px;stroke-miterlimit:10;stroke:#fff;opacity:.2;fill:none"/><circle cx="1164.55" cy="422.8" r="17.8" transform="rotate(-79.2 1404.584 485.216)" style="stroke-width:2.57px;opacity:.1;stroke-miterlimit:10;stroke:#fff;fill:none"/><circle cx="406.25" cy="833.23" r="14.1" style="stroke-width:2.03px;opacity:.3;stroke-miterlimit:10;stroke:#fff;fill:none"/></g></svg>