<svg xmlns="http://www.w3.org/2000/svg" viewBox="0 0 66.16 56.84"><defs><linearGradient id="a" x1="72.64" y1="-13.18" x2="-5.54" y2="59.95" gradientUnits="userSpaceOnUse"><stop offset=".15" stop-color="#00cf95"/><stop offset=".83" stop-color="#006e48"/></linearGradient></defs><path d="M66.49 3.46c0-.66-1-2-1.43-1.88A3.92 3.92 0 0 0 63 2.8c-3.61 1.37-7 3-7 3a12.55 12.55 0 0 0-10.26-1.24 25.35 25.35 0 0 0-10.91-1.18 8.61 8.61 0 0 0 1.44 2.54 26.25 26.25 0 0 0-3.88 1.17 9.41 9.41 0 0 0 5.25 3.6C25.34 18.49 20.68 31 6.18 32.64h-.26A32.54 32.54 0 0 0 20.26 34c-5.21 6.81-9.7 13.29-19.08 15.58H.92a32.59 32.59 0 0 0 14.43-.51c-.83 1.27-1.66 2.44-2.46 3.5-.1.13-.2.25-.29.38l-.27.34-.26.33-.25.31-.25.3-.25.3-.26.3c-.45.52-.87 1-1.27 1.41-.07.06-.13.13-.19.19l-.06.06-.16.17-.28.34-.1.15-.07.07-.13.12-.08.07-.12.11-.07.07-.11.1-.08.07-.1.08-.08.07L8 58l-.1.07h-.06l-.09.06h-.06l-.09.06-.13.07c3.65 0 14-3.82 20.55-11.61 0 0 7.6-4.11 11.89-15.2 1.82-4.74 7.81-10.17 13.54-13.81 0 0 15.2-8.89 13.13-14.35Z" transform="translate(-.92 -1.58)" style="fill:url(#a);fill-rule:evenodd"/><path d="M66.49 3.45c.69 8.66-16.8 10.15-21.65 19.77a7.55 7.55 0 0 1-.1-3.43s-8.28 9.92-10.86 19.55a17.62 17.62 0 0 1 0-9.41c-8.48 8.12-9.72 24.56-26.52 28.49 3.65 0 14.48-1 21.07-8.8a40.25 40.25 0 0 1-4.25 6A43.86 43.86 0 0 0 43.1 42.54c-1.07 2.94-2 5.13-2 5.13C49.68 40 50.28 32.83 53.65 26A14.55 14.55 0 0 0 55 31.62c-.43-7 3.77-13.66 9.5-17.3-.02 0 4.06-5.41 1.99-10.87Z" transform="translate(-.92 -1.58)" style="fill:#fff;fill-rule:evenodd"/><path d="M66.51 3.49c.69 8.66-16.8 10.15-21.65 19.77a7.55 7.55 0 0 1-.1-3.43s-8.28 9.92-10.86 19.55a17.62 17.62 0 0 1 0-9.41c-8.48 8.12-9.72 24.56-26.52 28.49 3.65 0 14.48-1 21.07-8.8a40.25 40.25 0 0 1-4.25 6c16.64-9.91 12.8-19.78 21.47-30.6a12.68 12.68 0 0 0 .08 5C50.9 16.29 69.61 13.3 66.5 3.5Z" transform="translate(-.92 -1.58)" style="fill:#bfbfbf;fill-rule:evenodd"/><path d="m52.76 7.47-4.33.17s-.54 1.67.25 2.14 4.08-2.31 4.08-2.31" transform="translate(-.92 -1.58)" style="fill:#000002;fill-rule:evenodd"/><path d="M62.08 1.64a2.66 2.66 0 0 0 1.24.83 2.33 2.33 0 0 0 2.19-.32c.4-.41-.92-2.28-1.36-2.15-1.22.42-2.36 1.14-2.07 1.64Z"/></svg>