<svg id="Capa" xmlns="http://www.w3.org/2000/svg" viewBox="0 0 226 49.74"><defs><linearGradient id="Degradado_sin_nombre_1110" x1="64.75" y1="-10.28" x2="-3.66" y2="53.71" gradientUnits="userSpaceOnUse"><stop offset=".15" stop-color="#00cf95"/><stop offset=".83" stop-color="#006e48"/></linearGradient><style>.cls-1{fill:#bacde7}</style></defs><g id="Logo"><g id="Texto"><path class="cls-1" d="M90.56 11.84h4.93A1.55 1.55 0 0 1 97 13.43v27.81a1.55 1.55 0 0 1-1.49 1.6h-3.68A2.17 2.17 0 0 1 90 41.77l-11-17v16.47a1.55 1.55 0 0 1-1.49 1.6h-4.95A1.58 1.58 0 0 1 71 41.27V13.41a1.57 1.57 0 0 1 1.58-1.57h3.62a2.23 2.23 0 0 1 1.87 1.06L89 29.91v-16.5a1.57 1.57 0 0 1 1.56-1.57ZM116.84 35.84a1.57 1.57 0 0 1 1.57 1.57v3.86a1.57 1.57 0 0 1-1.57 1.57H101a1.57 1.57 0 0 1-1.57-1.57V13.41a1.57 1.57 0 0 1 1.57-1.57h15.86a1.57 1.57 0 0 1 1.57 1.57v3.91a1.53 1.53 0 0 1-1.52 1.52h-9.48v5h8.43a1.57 1.57 0 0 1 1.57 1.57v3.86a1.57 1.57 0 0 1-1.57 1.57h-8.43v5ZM138.3 34.63a1.52 1.52 0 0 1 1.48 1.54V41a1.58 1.58 0 0 1-1.54 1.59h-15.92a1.57 1.57 0 0 1-1.54-1.59V13.22a1.57 1.57 0 0 1 1.54-1.59h5a1.52 1.52 0 0 1 1.48 1.54v21.46ZM166.07 33.9c0 5-4.33 9.47-12 9.47-5.06 0-9.86-1.75-11.78-6.2a1.6 1.6 0 0 1 1-2.09l4-1.23a1.57 1.57 0 0 1 1.84.7A5.3 5.3 0 0 0 154 37c2.57 0 4.45-1 4.45-3 0-2.32-3-2.62-6.42-3.49-6.11-1.53-8.9-4.33-8.9-9.43 0-5.9 4.89-9.39 11.22-9.39 4.62 0 8.6 2.14 10.3 5.94a1.55 1.55 0 0 1-1 2.14l-4 1a1.62 1.62 0 0 1-1.7-.7 4.14 4.14 0 0 0-3.89-2c-2.18 0-3.67 1.18-3.67 2.92 0 2.4 3.67 3 6 3.63 7.49 2.16 9.68 4.47 9.68 9.28ZM199.57 27.52c0 9.08-6.5 15.85-15.54 15.85s-15.54-6.77-15.54-15.85S175 11.72 184 11.72s15.57 6.77 15.57 15.8Zm-7.5 0c0-4.32-2.71-8.6-8-8.6s-8 4.28-8 8.6 2.71 8.65 8 8.65 8-4.33 8-8.65ZM221.57 12h4.94a1.55 1.55 0 0 1 1.49 1.6v27.85a1.54 1.54 0 0 1-1.49 1.55h-3.66a2.14 2.14 0 0 1-1.85-1l-11-17v16.45a1.54 1.54 0 0 1-1.49 1.55h-4.94a1.57 1.57 0 0 1-1.57-1.53V13.62a1.57 1.57 0 0 1 1.57-1.62h3.62a2.19 2.19 0 0 1 1.87 1.07l10.94 17V13.62a1.57 1.57 0 0 1 1.57-1.62Z" transform="translate(-2 -2.63)"/></g><g id="Isotipo"><path d="M59.37 4.27c0-.57-.91-1.73-1.24-1.64a3.52 3.52 0 0 0-1.78 1.06c-3.18 1.2-6.2 2.64-6.2 2.64a11 11 0 0 0-8.93-1.09 22.29 22.29 0 0 0-9.54-1 7.32 7.32 0 0 0 1.25 2.23 22.16 22.16 0 0 0-3.39 1 8.11 8.11 0 0 0 4.58 3.16C23.37 17.43 19.29 28.39 6.6 29.81h-.22A28.54 28.54 0 0 0 18.92 31c-4.56 6-8.49 11.63-16.69 13.64H2a28.61 28.61 0 0 0 12.63-.45c-.73 1.11-1.46 2.14-2.16 3.07l-.25.33-.24.3c-.08.1-.15.2-.23.29l-.22.27-.21.27-.22.26-.22.26c-.39.45-.76.87-1.11 1.23l-.16.18h-.06l-.14.14-.06.06-.35.4v.07l-.11.1-.07.07-.1.09-.07.07-.1.08-.06.06-.09.08-.07.05-.12.08h-.06l-.08.06h-.06l-.08.06-.08.05-.11.06c3.19 0 12.22-3.35 18-10.16 0 0 6.65-3.59 10.39-13.3 1.6-4.15 6.84-8.9 11.86-12.09 0 0 13.3-7.77 11.49-12.55Z" transform="translate(-2 -2.63)" style="fill:url(#Degradado_sin_nombre_1110);fill-rule:evenodd"/><path d="M59.38 4.27c.6 7.57-14.71 8.88-19 17.29a6.64 6.64 0 0 1-.09-3s-7.24 8.69-9.5 17.12a15.44 15.44 0 0 1 0-8.24c-7.43 7.1-8.51 21.49-23.21 24.93 3.19 0 12.67-.88 18.44-7.7A34.67 34.67 0 0 1 22.37 50a38.33 38.33 0 0 0 16.54-11.53C38 41 37.2 43 37.2 43c7.47-6.68 8-13 10.94-19a12.88 12.88 0 0 0 1.16 4.94c-.37-6.1 3.3-12 8.32-15.14 0-.02 3.57-4.75 1.76-9.53Z" transform="translate(-2 -2.63)" style="fill:#fff;fill-rule:evenodd"/><path d="M59.39 4.31c.6 7.57-14.71 8.88-19 17.29a6.64 6.64 0 0 1-.09-3s-7.24 8.69-9.5 17.12a15.44 15.44 0 0 1 0-8.24c-7.43 7.1-8.51 21.49-23.21 24.93 3.19 0 12.67-.88 18.44-7.7A34.67 34.67 0 0 1 22.37 50c14.56-8.67 11.16-17.3 18.78-26.77a11.25 11.25 0 0 0 .08 4.37c4.5-12 20.88-14.67 18.15-23.24Z" transform="translate(-2 -2.63)" style="fill:#bfbfbf;fill-rule:evenodd"/><path d="m47.36 7.78-3.79.15s-.47 1.47.22 1.87 3.57-2 3.57-2" transform="translate(-2 -2.63)" style="fill:#000002;fill-rule:evenodd"/><path d="M56.31 4.07a2.32 2.32 0 0 0 1.09.72 2 2 0 0 0 1.92-.28c.34-.35-.81-2-1.19-1.88-1.06.37-2.07 1-1.82 1.44Z" transform="translate(-2 -2.63)"/></g></g></svg>