<svg id="Capa" xmlns="http://www.w3.org/2000/svg" viewBox="0 0 227.59 50.27"><defs><linearGradient id="Degradado_sin_nombre_8" x1="64.63" y1="-10.69" x2="-4.51" y2="53.99" gradientUnits="userSpaceOnUse"><stop offset=".17" stop-color="#00cf95"/><stop offset=".87" stop-color="#006e48"/></linearGradient><style>.cls-5{fill:#bacde7}</style></defs><g id="Logo"><g id="Icono"><path d="M59.19 4c0-.58-.93-1.76-1.26-1.66a3.53 3.53 0 0 0-1.8 1.07c-3.22 1.24-6.26 2.69-6.26 2.69a11.08 11.08 0 0 0-9-1.1 22.55 22.55 0 0 0-9.67-1 7.5 7.5 0 0 0 1.27 2.25 21.58 21.58 0 0 0-3.43 1 8.31 8.31 0 0 0 4.64 3.19c-10.89 6.87-15 18-27.83 19.38h-.23A28.89 28.89 0 0 0 18.3 31c-4.6 6-8.57 11.76-16.87 13.79h-.22A28.88 28.88 0 0 0 14 44.35c-.73 1.12-1.46 2.16-2.17 3.1a2.85 2.85 0 0 1-.25.33l-.23.31c-.08.1-.15.2-.23.29l-.22.27-.22.27-.22.26c-.08.09-.15.18-.23.26-.4.46-.77.88-1.12 1.25l-.17.17v.06l-.14.14-.07.06-.12.13-.07.06-.11.11-.07.06-.11.1-.06.06-.1.09-.07.06-.09.07-.07.06-.08.07h-.06l-.09.06-.08.06-.08.06-.11.06c3.22 0 12.35-3.38 18.17-10.26 0 0 6.72-3.64 10.51-13.45 1.62-4.19 6.91-9 12-12.21 0 0 13.44-7.86 11.61-12.69Z" transform="translate(-1.21 -2.36)" style="fill:url(#Degradado_sin_nombre_8);fill-rule:evenodd"/><path d="M59.19 4c.61 7.68-14.86 9-19.19 17.5a6.77 6.77 0 0 1-.09-3s-7.32 8.77-9.6 17.29a15.61 15.61 0 0 1 0-8.32c-7.5 7.18-8.6 21.72-23.45 25.19 3.22 0 12.8-.89 18.63-7.78a35.14 35.14 0 0 1-3.76 5.34 38.86 38.86 0 0 0 16.72-11.6c-.95 2.6-1.74 4.54-1.74 4.54 7.62-6.79 8.14-13.16 11.13-19.22a12.8 12.8 0 0 0 1.17 5c-.38-6.16 3.33-12.08 8.4-15.3 0-.01 3.59-4.79 1.78-9.64Z" transform="translate(-1.21 -2.36)" style="fill:#fff;fill-rule:evenodd"/><path d="M59.21 4.06C59.8 11.68 44.33 13 40 21.5a6.77 6.77 0 0 1-.09-3s-7.32 8.77-9.6 17.29a15.61 15.61 0 0 1 0-8.32c-7.5 7.18-8.6 21.72-23.45 25.19 3.22 0 12.8-.89 18.63-7.78a35.14 35.14 0 0 1-3.76 5.34c14.71-8.76 11.27-17.49 19-27.06a11.14 11.14 0 0 0 .07 4.42C45.4 15.37 62 12.73 59.19 4.06Z" transform="translate(-1.21 -2.36)" style="fill:#bfbfbf;fill-rule:evenodd"/><path d="m47 7.57-3.82.15s-.48 1.48.22 1.9 3.6-2 3.6-2" transform="translate(-1.21 -2.36)" style="fill:#000002;fill-rule:evenodd"/><path d="M56.09 3.82a2.42 2.42 0 0 0 1.1.73 2.06 2.06 0 0 0 1.94-.28c.35-.36-.81-2-1.2-1.9-1.07.32-2.09 1.01-1.84 1.45Z" transform="translate(-1.21 -2.36)"/></g><g id="Nombre"><path class="cls-5" d="M95.54 42.17h-6L76 21.71v20.46h-6V12.32h6l13.54 20.5v-20.5h6ZM107.41 17.19v7.47h10v4.74h-10v7.9h11.32v4.87h-17.3V12.32h17.3v4.87ZM130.13 37.43H140v4.74h-15.85V12.36h6ZM148.43 41.4a9.23 9.23 0 0 1-4-3.07 8.17 8.17 0 0 1-1.43-4.74h6.41a4.09 4.09 0 0 0 1.3 2.9 4.62 4.62 0 0 0 3.22 1.07 5 5 0 0 0 3.29-1 3.27 3.27 0 0 0 1.2-2.63 3 3 0 0 0-.81-2.18 5.73 5.73 0 0 0-2-1.35 33.19 33.19 0 0 0-3.36-1.08 37.65 37.65 0 0 1-4.72-1.69 8.27 8.27 0 0 1-3.11-2.52 7.19 7.19 0 0 1-1.31-4.51 8.08 8.08 0 0 1 1.29-4.6 8.43 8.43 0 0 1 3.71-3 13.51 13.51 0 0 1 5.47-1.05 11.89 11.89 0 0 1 7.5 2.24 8.35 8.35 0 0 1 3.18 6.26h-6.58a3.44 3.44 0 0 0-1.3-2.54 4.91 4.91 0 0 0-3.23-1 4.17 4.17 0 0 0-2.79.89 3.25 3.25 0 0 0-1.05 2.61 2.65 2.65 0 0 0 .79 2 6 6 0 0 0 2 1.29c.78.32 1.88.7 3.31 1.13a35.33 35.33 0 0 1 4.74 1.71 8.59 8.59 0 0 1 3.16 2.56 7.12 7.12 0 0 1 1.32 4.48 8.42 8.42 0 0 1-1.27 4.42 8.69 8.69 0 0 1-3.63 3.26 12.39 12.39 0 0 1-5.68 1.22 14 14 0 0 1-5.62-1.08ZM175.92 40.51a14.6 14.6 0 0 1-5.55-5.45 15.21 15.21 0 0 1-2.05-7.88 15.14 15.14 0 0 1 2.05-7.84 14.57 14.57 0 0 1 5.55-5.44 16 16 0 0 1 15.4 0 14.61 14.61 0 0 1 5.51 5.44 15.32 15.32 0 0 1 2 7.84 15.39 15.39 0 0 1-2 7.88 14.61 14.61 0 0 1-5.53 5.45 16.07 16.07 0 0 1-15.38 0Zm12.43-4.6a8.37 8.37 0 0 0 3.2-3.48 11.4 11.4 0 0 0 1.15-5.25 11.26 11.26 0 0 0-1.15-5.18 8.26 8.26 0 0 0-3.2-3.44 9.23 9.23 0 0 0-4.74-1.2 9.36 9.36 0 0 0-4.77 1.2 8.18 8.18 0 0 0-3.22 3.44 11.26 11.26 0 0 0-1.15 5.23 11.4 11.4 0 0 0 1.15 5.25 8.29 8.29 0 0 0 3.22 3.48 9.18 9.18 0 0 0 4.77 1.22 9 9 0 0 0 4.74-1.27ZM228.79 42.17h-6l-13.51-20.46v20.46h-6V12.32h6l13.54 20.5v-20.5h6Z" transform="translate(-1.21 -2.36)"/></g></g></svg>